<svg width="20" height="20" viewBox="0 0 20 20" fill="none" xmlns="http://www.w3.org/2000/svg">
<g id="mage:filter">
<path id="Vector" d="M17.7096 9.99999H7.4138M3.77964 9.99999H2.29297M3.77964 9.99999C3.77964 9.51818 3.97103 9.0561 4.31172 8.71541C4.65242 8.37472 5.11449 8.18332 5.5963 8.18332C6.07811 8.18332 6.54019 8.37472 6.88088 8.71541C7.22157 9.0561 7.41297 9.51818 7.41297 9.99999C7.41297 10.4818 7.22157 10.9439 6.88088 11.2846C6.54019 11.6253 6.07811 11.8167 5.5963 11.8167C5.11449 11.8167 4.65242 11.6253 4.31172 11.2846C3.97103 10.9439 3.77964 10.4818 3.77964 9.99999ZM17.7096 15.5058H12.9196M12.9196 15.5058C12.9196 15.9877 12.7278 16.4503 12.387 16.7911C12.0462 17.1319 11.5841 17.3233 11.1021 17.3233C10.6203 17.3233 10.1582 17.1311 9.81756 16.7904C9.47687 16.4497 9.28547 15.9876 9.28547 15.5058M12.9196 15.5058C12.9196 15.0239 12.7278 14.5621 12.387 14.2214C12.0462 13.8806 11.5841 13.6892 11.1021 13.6892C10.6203 13.6892 10.1582 13.8806 9.81756 14.2212C9.47687 14.5619 9.28547 15.024 9.28547 15.5058M9.28547 15.5058H2.29297M17.7096 4.49416H15.1221M11.488 4.49416H2.29297M11.488 4.49416C11.488 4.01235 11.6794 3.55027 12.0201 3.20958C12.3607 2.86889 12.8228 2.67749 13.3046 2.67749C13.5432 2.67749 13.7794 2.72448 13.9998 2.81578C14.2203 2.90707 14.4205 3.04089 14.5892 3.20958C14.7579 3.37827 14.8917 3.57854 14.983 3.79895C15.0743 4.01936 15.1213 4.25559 15.1213 4.49416C15.1213 4.73272 15.0743 4.96896 14.983 5.18937C14.8917 5.40977 14.7579 5.61004 14.5892 5.77873C14.4205 5.94743 14.2203 6.08124 13.9998 6.17254C13.7794 6.26383 13.5432 6.31082 13.3046 6.31082C12.8228 6.31082 12.3607 6.11943 12.0201 5.77873C11.6794 5.43804 11.488 4.97597 11.488 4.49416Z" stroke="black" stroke-width="1.5" stroke-miterlimit="10" stroke-linecap="round"/>
</g>
</svg>
