<svg width="20" height="20" viewBox="0 0 20 20" fill="none" xmlns="http://www.w3.org/2000/svg">
<g id="ph:book">
<path id="Vector" d="M16.25 1.875H5.625C4.96196 1.875 4.32607 2.13839 3.85723 2.60723C3.38839 3.07607 3.125 3.71196 3.125 4.375V17.5C3.125 17.6658 3.19085 17.8247 3.30806 17.9419C3.42527 18.0592 3.58424 18.125 3.75 18.125H15C15.1658 18.125 15.3247 18.0592 15.4419 17.9419C15.5592 17.8247 15.625 17.6658 15.625 17.5C15.625 17.3342 15.5592 17.1753 15.4419 17.0581C15.3247 16.9408 15.1658 16.875 15 16.875H4.375C4.375 16.5435 4.5067 16.2255 4.74112 15.9911C4.97554 15.7567 5.29348 15.625 5.625 15.625H16.25C16.4158 15.625 16.5747 15.5592 16.6919 15.4419C16.8092 15.3247 16.875 15.1658 16.875 15V2.5C16.875 2.33424 16.8092 2.17527 16.6919 2.05806C16.5747 1.94085 16.4158 1.875 16.25 1.875ZM15.625 14.375H5.625C5.18604 14.3743 4.75474 14.49 4.375 14.7102V4.375C4.375 4.04348 4.5067 3.72554 4.74112 3.49112C4.97554 3.2567 5.29348 3.125 5.625 3.125H15.625V14.375Z" fill="black"/>
</g>
</svg>
