<svg width="20" height="20" viewBox="0 0 20 20" fill="none" xmlns="http://www.w3.org/2000/svg">
<g id="fluent:delete-24-regular">
<path id="Vector" d="M8.33268 4.16667H11.666C11.666 3.72464 11.4904 3.30072 11.1779 2.98816C10.8653 2.67559 10.4414 2.5 9.99935 2.5C9.55732 2.5 9.1334 2.67559 8.82084 2.98816C8.50828 3.30072 8.33268 3.72464 8.33268 4.16667ZM7.08268 4.16667C7.08268 3.78364 7.15812 3.40437 7.3047 3.05051C7.45128 2.69664 7.66612 2.37511 7.93695 2.10427C8.20779 1.83343 8.52932 1.61859 8.88319 1.47202C9.23706 1.32544 9.61633 1.25 9.99935 1.25C10.3824 1.25 10.7616 1.32544 11.1155 1.47202C11.4694 1.61859 11.7909 1.83343 12.0617 2.10427C12.3326 2.37511 12.5474 2.69664 12.694 3.05051C12.8406 3.40437 12.916 3.78364 12.916 4.16667H17.7077C17.8734 4.16667 18.0324 4.23251 18.1496 4.34973C18.2668 4.46694 18.3327 4.62591 18.3327 4.79167C18.3327 4.95743 18.2668 5.1164 18.1496 5.23361C18.0324 5.35082 17.8734 5.41667 17.7077 5.41667H16.6077L15.6327 15.5092C15.5579 16.2825 15.1977 17.0002 14.6224 17.5224C14.0471 18.0445 13.2979 18.3336 12.521 18.3333H7.47768C6.7009 18.3334 5.95193 18.0442 5.37681 17.5221C4.80168 16.9999 4.44163 16.2823 4.36685 15.5092L3.39102 5.41667H2.29102C2.12526 5.41667 1.96628 5.35082 1.84907 5.23361C1.73186 5.1164 1.66602 4.95743 1.66602 4.79167C1.66602 4.62591 1.73186 4.46694 1.84907 4.34973C1.96628 4.23251 2.12526 4.16667 2.29102 4.16667H7.08268ZM8.74935 8.125C8.74935 7.95924 8.6835 7.80027 8.56629 7.68306C8.44908 7.56585 8.29011 7.5 8.12435 7.5C7.95859 7.5 7.79962 7.56585 7.68241 7.68306C7.5652 7.80027 7.49935 7.95924 7.49935 8.125V14.375C7.49935 14.5408 7.5652 14.6997 7.68241 14.8169C7.79962 14.9342 7.95859 15 8.12435 15C8.29011 15 8.44908 14.9342 8.56629 14.8169C8.6835 14.6997 8.74935 14.5408 8.74935 14.375V8.125ZM11.8743 7.5C12.0401 7.5 12.1991 7.56585 12.3163 7.68306C12.4335 7.80027 12.4993 7.95924 12.4993 8.125V14.375C12.4993 14.5408 12.4335 14.6997 12.3163 14.8169C12.1991 14.9342 12.0401 15 11.8743 15C11.7086 15 11.5496 14.9342 11.4324 14.8169C11.3152 14.6997 11.2493 14.5408 11.2493 14.375V8.125C11.2493 7.95924 11.3152 7.80027 11.4324 7.68306C11.5496 7.56585 11.7086 7.5 11.8743 7.5ZM5.61102 15.3892C5.65596 15.853 5.87205 16.2835 6.21716 16.5968C6.56226 16.91 7.01164 17.0834 7.47768 17.0833H12.521C12.9871 17.0834 13.4364 16.91 13.7815 16.5968C14.1266 16.2835 14.3427 15.853 14.3877 15.3892L15.3527 5.41667H4.64602L5.61102 15.3892Z" fill="black"/>
</g>
</svg>
