<svg width="20" height="20" viewBox="0 0 20 20" fill="none" xmlns="http://www.w3.org/2000/svg">
<g id="iconoir:language" clip-path="url(#clip0_210_1722)">
<g id="Group">
<path id="Vector" d="M1.66602 9.99996C1.66602 14.6025 5.39685 18.3333 9.99935 18.3333C14.6018 18.3333 18.3327 14.6025 18.3327 9.99996C18.3327 5.39746 14.6018 1.66663 9.99935 1.66663C5.39685 1.66663 1.66602 5.39746 1.66602 9.99996Z" stroke="black" stroke-width="1.5" stroke-linecap="round" stroke-linejoin="round"/>
<path id="Vector_2" d="M10.8331 1.70825C10.8331 1.70825 13.3331 4.99992 13.3331 9.99992C13.3331 14.9999 10.8331 18.2916 10.8331 18.2916M9.16641 18.2916C9.16641 18.2916 6.66641 14.9999 6.66641 9.99992C6.66641 4.99992 9.16641 1.70825 9.16641 1.70825M2.19141 12.9166H17.8081M2.19141 7.08325H17.8081" stroke="black" stroke-width="1.5" stroke-linecap="round" stroke-linejoin="round"/>
</g>
</g>
<defs>
<clipPath id="clip0_210_1722">
<rect width="20" height="20" fill="white"/>
</clipPath>
</defs>
</svg>
