<svg width="20" height="20" viewBox="0 0 20 20" fill="none" xmlns="http://www.w3.org/2000/svg">
<g id="iconoir:privacy-policy">
<g id="Group">
<path id="Vector" d="M16.6673 9.99996V4.79079C16.6674 4.72501 16.6544 4.65987 16.6293 4.5991C16.6041 4.53832 16.5672 4.48311 16.5207 4.43663L13.8973 1.81329C13.8036 1.7195 13.6765 1.66674 13.544 1.66663H3.83398C3.70138 1.66663 3.5742 1.7193 3.48043 1.81307C3.38666 1.90684 3.33398 2.03402 3.33398 2.16663V17.8333C3.33398 17.9659 3.38666 18.0931 3.48043 18.1868C3.5742 18.2806 3.70138 18.3333 3.83398 18.3333H10.834M6.66732 8.33329H13.334M6.66732 4.99996H10.0007M6.66732 11.6666H9.16732" stroke="black" stroke-width="1.5" stroke-linecap="round" stroke-linejoin="round"/>
<path id="Vector_2" d="M13.334 1.66663V4.49996C13.334 4.63257 13.3867 4.75974 13.4804 4.85351C13.5742 4.94728 13.7014 4.99996 13.834 4.99996H16.6673M16.6607 12.6041L18.7907 13.145C19.0123 13.2016 19.1682 13.4033 19.1615 13.6316C19.0182 18.43 16.2507 19.1666 16.2507 19.1666C16.2507 19.1666 13.4832 18.43 13.3398 13.6316C13.3375 13.5205 13.373 13.412 13.4403 13.3236C13.5077 13.2352 13.6029 13.1722 13.7107 13.145L15.8407 12.6041C16.1098 12.5358 16.3915 12.5358 16.6607 12.6041Z" stroke="black" stroke-width="1.5" stroke-linecap="round" stroke-linejoin="round"/>
</g>
</g>
</svg>
