<svg width="16" height="16" viewBox="0 0 16 16" fill="none" xmlns="http://www.w3.org/2000/svg">
<g id="mingcute:send-fill" clip-path="url(#clip0_464_2492)">
<g id="Group">
<path id="Vector" d="M13.4897 3.79069C13.7777 2.99402 13.0057 2.22202 12.209 2.51069L2.47237 6.03202C1.67304 6.32135 1.57637 7.41202 2.3117 7.83802L5.4197 9.63735L8.19504 6.86202C8.32077 6.74058 8.48917 6.67338 8.66397 6.6749C8.83877 6.67642 9.00598 6.74654 9.12958 6.87014C9.25319 6.99375 9.3233 7.16095 9.32482 7.33575C9.32634 7.51055 9.25914 7.67895 9.1377 7.80469L6.36237 10.58L8.16237 13.688C8.5877 14.4234 9.67837 14.326 9.9677 13.5274L13.4897 3.79069Z" fill="white"/>
</g>
</g>
<defs>
<clipPath id="clip0_464_2492">
<rect width="16" height="16" fill="white"/>
</clipPath>
</defs>
</svg>
