<svg width="20" height="20" viewBox="0 0 20 20" fill="none" xmlns="http://www.w3.org/2000/svg">
<g id="hugeicons:ticket-03">
<path id="Vector" d="M10.8329 9.99996H14.1663M7.49962 13.3333H14.1663M18.3329 7.39913C18.2771 6.11413 18.1213 5.27746 17.6829 4.61579C17.4336 4.2388 17.121 3.90781 16.7588 3.63746C15.7871 2.91663 14.4163 2.91663 11.6729 2.91663H8.32712C5.58462 2.91663 4.21295 2.91663 3.24128 3.63746C2.88128 3.90413 2.56878 4.23496 2.31628 4.61579C1.87878 5.27746 1.72295 6.11413 1.66628 7.39913C1.65795 7.61829 1.84628 7.78663 2.05378 7.78663C3.20878 7.78663 4.14545 8.77746 4.14545 9.99996C4.14545 11.2225 3.20878 12.2133 2.05378 12.2133C1.84628 12.2133 1.65712 12.3816 1.66712 12.6016C1.72295 13.8858 1.87878 14.7225 2.31712 15.385C2.56649 15.7617 2.87916 16.0924 3.24128 16.3625C4.21295 17.0833 5.58462 17.0833 8.32712 17.0833H11.6729C14.4154 17.0833 15.7871 17.0833 16.7588 16.3625C17.1188 16.0958 17.4313 15.765 17.6838 15.3841C18.1213 14.7225 18.2771 13.8858 18.3329 12.6008V7.39913Z" stroke="black" stroke-width="1.5" stroke-linecap="round" stroke-linejoin="round"/>
</g>
</svg>
