<svg width="20" height="20" viewBox="0 0 20 20" fill="none" xmlns="http://www.w3.org/2000/svg">
<g id="icons8:upload-2">
<path id="Vector" d="M10 2.5C7.425 2.5 5.4 4.45625 5.11688 6.95312C4.57228 7.04088 4.06154 7.27425 3.63872 7.62852C3.2159 7.9828 2.89673 8.4448 2.715 8.96563C1.1775 9.40875 0 10.78 0 12.5C0 14.5775 1.6725 16.25 3.75 16.25H16.25C18.3275 16.25 20 14.5775 20 12.5C20 11.4 19.4656 10.415 18.6912 9.72625C18.5462 7.53 16.7944 5.7775 14.59 5.66375C13.8375 3.83313 12.1112 2.5 10 2.5ZM10 3.75C11.7262 3.75 13.1062 4.85625 13.5938 6.425L13.7312 6.875H14.375C16.0969 6.875 17.5 8.27812 17.5 10V10.3125L17.7537 10.5081C18.06 10.7428 18.3088 11.0441 18.4815 11.3892C18.6541 11.7343 18.7459 12.1142 18.75 12.5C18.75 13.9225 17.6725 15 16.25 15H3.75C2.3275 15 1.25 13.9225 1.25 12.5C1.25 11.2375 2.15625 10.2575 3.3 10.0588L3.71062 9.98063L3.78875 9.56938C3.97625 8.7275 4.7225 8.125 5.625 8.125H6.25V7.5C6.25 5.39375 7.89375 3.75 10 3.75ZM10 7.24625L9.55 7.67562L7.05 10.1756L7.95 11.0756L9.375 9.64813V13.75H10.625V9.64813L12.05 11.0744L12.95 10.1744L10.45 7.67438L10 7.24625Z" fill="#0073E7"/>
</g>
</svg>
