<svg width="22" height="14" viewBox="0 0 22 14" fill="none" xmlns="http://www.w3.org/2000/svg">
<g id="fontisto:american-express" clip-path="url(#clip0_185_1193)">
<path id="Vector" d="M20.5333 14.0002H1.46667C1.07768 14.0002 0.70463 13.8527 0.429577 13.5901C0.154523 13.3276 0 12.9715 0 12.6002L0 6.71084H1.05661L1.29494 6.16018H1.82844L2.06617 6.70851H4.14517V6.29143L4.33094 6.71143H5.41017L5.59594 6.28443V6.71026H10.7617V5.80959H10.8594C10.9291 5.81193 10.9493 5.81776 10.9493 5.92859V6.71143H13.6217V6.50201C13.8948 6.63443 14.2169 6.71201 14.5585 6.71201L14.6166 6.71143H14.6135H15.7379L15.9787 6.16309H16.5122L16.7475 6.71143H18.9145V6.18993L19.2421 6.71143H20.9752V3.26743H19.2598V3.67401L19.0196 3.26743H17.2559V3.67401L17.0353 3.26743H14.6538C14.293 3.25002 13.9335 3.3209 13.6094 3.47334L13.6223 3.46809V3.26743H11.9796V3.46809C11.7808 3.3185 11.5297 3.24694 11.2774 3.26801H11.2811H5.27817L4.87544 4.15759L4.46172 3.26801H2.57094V3.67459L2.36256 3.26801H0.749222L0.00183333 4.90134V1.40134C0.00183333 1.03004 0.156357 0.673944 0.43141 0.411393C0.706463 0.148842 1.07952 0.00134277 1.4685 0.00134277H20.5352C20.9242 0.00134277 21.2972 0.148842 21.5723 0.411393C21.8473 0.673944 22.0018 1.03004 22.0018 1.40134V7.51468H20.8572C20.8389 7.51351 20.8169 7.51351 20.7955 7.51351C20.5303 7.51351 20.284 7.58934 20.0787 7.71943L20.0836 7.71651V7.51468H18.3908C18.1263 7.50073 17.8647 7.57247 17.6483 7.71826L17.6519 7.71593V7.51409H14.6294V7.71593C14.382 7.58273 14.1025 7.51318 13.8184 7.51409H13.7946H13.7958H11.8018V7.71593C11.5413 7.55663 11.2321 7.48574 10.9242 7.51468L10.9297 7.51409H8.69856L8.18767 8.04143L7.70978 7.51409H4.37678V10.9604H7.64744L8.17361 10.4249L8.66922 10.9604H10.6853V10.1537H10.9664C11.2367 10.1638 11.5063 10.1207 11.7584 10.0271L11.7449 10.0318V10.9616H13.4072V10.0638H13.4872C13.5887 10.0638 13.5991 10.0673 13.5991 10.1653V10.9622H18.6505L18.7122 10.9633C19.0019 10.9633 19.272 10.8805 19.4969 10.7388L19.4914 10.7417V10.9622H21.0937L21.1701 10.9633C21.4702 10.9633 21.7556 10.9044 22.0147 10.7977L22.0006 10.8029V12.6008C22.0006 12.9721 21.8461 13.3282 21.571 13.5907C21.296 13.8533 20.9229 14.0008 20.5339 14.0008L20.5333 14.0002ZM12.8975 10.4774H12.2754V8.00701H13.7029C13.9608 7.9842 14.2204 8.0256 14.4564 8.12718L14.4467 8.12368C14.6379 8.22401 14.7657 8.41534 14.7657 8.63468L14.7644 8.67376V8.67201L14.7651 8.69418C14.7651 8.97768 14.586 9.22151 14.3293 9.32768L14.3244 9.32943C14.4473 9.37143 14.5499 9.44318 14.6263 9.53593L14.6276 9.53709C14.7138 9.67343 14.75 9.83335 14.7302 9.99151L14.7308 9.98801V10.4768H14.1099V10.1677C14.1393 9.99935 14.104 9.82655 14.0103 9.68118L14.0122 9.68409C13.9477 9.63735 13.8739 9.60359 13.7953 9.58484C13.7168 9.56609 13.635 9.56275 13.5551 9.57501L13.5587 9.57443H12.8975V10.4768V10.4774ZM12.8975 8.51743V9.07218H13.6492C13.7553 9.08153 13.8621 9.0634 13.9584 9.01968L13.9547 9.02143C13.994 8.99719 14.0264 8.96394 14.0488 8.92471C14.0712 8.88548 14.083 8.84153 14.0831 8.79684L14.0824 8.78343C14.0855 8.73884 14.0752 8.69493 14.0528 8.6557C14.0304 8.61646 13.9968 8.58409 13.9559 8.56234L13.9547 8.56176C13.862 8.52217 13.7601 8.5061 13.6589 8.51509H13.6614L12.8975 8.51743ZM7.38222 10.4768H4.9335V8.00701H7.42072L8.18155 8.81668L8.96806 8.00701H10.9438C11.6453 8.00701 11.9863 8.27359 11.9863 8.82076C11.9863 9.37784 11.6337 9.64851 10.9108 9.64851H10.1377V10.4763H8.93567L8.17422 9.66018L7.38222 10.4768ZM9.52172 8.27184L8.57206 9.24601L9.52172 10.2517V8.27184ZM5.55011 9.47059V9.96176H7.07056L7.77333 9.23726L7.09744 8.51743H5.5495V8.96659H6.90739V9.47001L5.55011 9.47059ZM10.1377 8.51801V9.14684H10.9364C11.1809 9.14684 11.3214 9.02784 11.3214 8.82018C11.3214 8.62184 11.1907 8.51743 10.9432 8.51743L10.1377 8.51801ZM21.1609 10.478H19.9668V9.94718H21.1561C21.245 9.95889 21.3353 9.93667 21.4072 9.88534L21.4066 9.88593C21.4296 9.86559 21.4479 9.84095 21.4604 9.81355C21.4729 9.78615 21.4794 9.75657 21.4793 9.72668V9.71734C21.4794 9.68782 21.4727 9.65864 21.4597 9.63184C21.4467 9.60504 21.4278 9.58127 21.4042 9.56218C21.3409 9.51855 21.2629 9.499 21.1854 9.50734H21.1866L21.0723 9.50384C20.5138 9.48984 19.8813 9.47351 19.8813 8.74259C19.8813 8.38676 20.1147 8.00701 20.768 8.00701H22.0006V8.53318H20.8731C20.786 8.52387 20.6981 8.54058 20.6213 8.58101L20.6238 8.57984C20.5936 8.5988 20.5693 8.62516 20.5535 8.65616C20.5377 8.68716 20.531 8.72165 20.5339 8.75601V8.75543V8.76184C20.5339 8.80115 20.5469 8.83945 20.5711 8.8713C20.5952 8.90314 20.6293 8.92689 20.6684 8.93918L20.6696 8.93976C20.7471 8.96256 20.8282 8.97204 20.9092 8.96776H20.9073L21.2428 8.97593C21.4957 8.95184 21.7484 9.02371 21.9462 9.17601L21.9444 9.17484C21.9627 9.18884 21.9786 9.20401 21.9927 9.22093L21.9933 9.22151L22.0006 10.1618C21.8978 10.2765 21.7671 10.3652 21.6199 10.4203C21.4728 10.4753 21.3137 10.4949 21.1567 10.4774L21.1609 10.478ZM18.7477 10.478H17.5426V9.94718H18.7416C18.8313 9.95839 18.9221 9.93625 18.9952 9.88534L18.9939 9.88593C19.0168 9.86552 19.0349 9.84085 19.0473 9.81346C19.0598 9.78606 19.0661 9.75652 19.0661 9.72668V9.72084C19.066 9.69082 19.0593 9.66115 19.0463 9.63379C19.0334 9.60644 19.0145 9.58203 18.9909 9.56218C18.9265 9.51851 18.8475 9.49899 18.7691 9.50734H18.7703L18.6566 9.50384C18.0999 9.48984 17.468 9.47351 17.468 8.74259C17.468 8.38676 17.7002 8.00701 18.3523 8.00701H19.5916V8.53318H18.4574C18.3709 8.52397 18.2835 8.54069 18.2074 8.58101L18.2099 8.57984C18.1778 8.60093 18.1522 8.6299 18.136 8.6637C18.1197 8.6975 18.1133 8.73486 18.1174 8.77185C18.1215 8.80884 18.1361 8.84407 18.1594 8.87383C18.1828 8.90359 18.2142 8.92677 18.2502 8.94093L18.2514 8.94151C18.3299 8.96449 18.4121 8.97397 18.4941 8.96951H18.4922L18.8253 8.97768C19.0795 8.95429 19.3333 9.02626 19.5329 9.17834L19.5311 9.17659C19.5983 9.24726 19.6493 9.33045 19.6811 9.42092C19.7129 9.51138 19.7246 9.60715 19.7157 9.70218V9.69926C19.7175 10.2143 19.3906 10.4768 18.7458 10.4768L18.7477 10.478ZM17.1722 10.478H15.1067V8.00643H17.1704V8.51684H15.7239V8.96601H17.1368V9.46943H15.7239V9.96059L17.1722 9.96293V10.4763V10.478ZM18.3761 6.22784H17.1166L16.8758 5.67718H15.5913L15.3578 6.22784H14.6343C14.3093 6.2442 13.9894 6.14647 13.7347 5.95309L13.7378 5.95484C13.6168 5.82739 13.525 5.67728 13.4682 5.51407C13.4113 5.35086 13.3908 5.17814 13.4078 5.00693L13.4072 5.01159C13.3914 4.83722 13.413 4.66162 13.4706 4.49546C13.5281 4.32929 13.6205 4.17604 13.7421 4.04501L13.7408 4.04618C13.8692 3.93907 14.0192 3.85831 14.1816 3.80894C14.3441 3.75956 14.5154 3.74262 14.685 3.75918L14.6801 3.75859H15.279V4.28534H14.6923C14.6065 4.27479 14.5193 4.28244 14.4369 4.30774C14.3545 4.33305 14.2789 4.3754 14.2157 4.43176L14.2163 4.43118C14.0856 4.5909 14.0222 4.79146 14.0384 4.99351V4.99059C14.019 5.19818 14.0801 5.40537 14.2102 5.57276L14.2083 5.57043C14.3298 5.6652 14.4853 5.71084 14.6416 5.69759H14.6392H14.9166L15.7911 3.75509H16.72L17.7668 6.08843V3.75509H18.7086L19.7951 5.47476V3.75509H20.4307V6.22376H19.5482L18.3749 4.36993V6.22376L18.3761 6.22784ZM16.2378 4.17568L15.8119 5.16034H16.6656L16.2378 4.17568ZM10.2496 6.22668H9.63111V3.75684H11.0538C11.3135 3.73112 11.5756 3.77326 11.8122 3.87876L11.803 3.87526C11.8981 3.92547 11.9774 3.99907 12.0326 4.08841C12.0879 4.17776 12.117 4.2796 12.1171 4.38334L12.1159 4.42418V4.42243V4.44051C12.1159 4.57523 12.0753 4.70711 11.9987 4.8203C11.9222 4.9335 11.8131 5.02322 11.6844 5.07868L11.6796 5.08043C11.8024 5.12476 11.9057 5.19593 11.9845 5.28693L11.9857 5.28809C12.0729 5.42493 12.1089 5.58596 12.0878 5.74484L12.0884 5.74134V6.22609H11.4644L11.462 5.91459V5.86793C11.4842 5.71562 11.4489 5.56074 11.3624 5.43101L11.3642 5.43393C11.2995 5.38854 11.226 5.35584 11.148 5.33772C11.0699 5.31959 10.9889 5.31641 10.9096 5.32834L10.9132 5.32776H10.2502V6.22609L10.2496 6.22668ZM10.2496 4.27076V4.81909H11C11.106 4.83007 11.2131 4.81185 11.3086 4.76659L11.3056 4.76776C11.3447 4.74504 11.3771 4.7131 11.3995 4.67499C11.422 4.63689 11.4338 4.59391 11.4339 4.55018L11.4333 4.53384C11.4364 4.48952 11.4258 4.44588 11.4029 4.40721C11.38 4.36855 11.3457 4.33713 11.3043 4.31684L11.3031 4.31626C11.2101 4.27817 11.1088 4.26216 11.0079 4.26959H11.0098L10.2496 4.27076ZM3.70089 6.22668H2.44444L2.20672 5.67601H0.9185L0.678944 6.22668H0.00672222L1.11467 3.75684H2.03317L3.08489 6.09426V3.75684H4.09383L4.90294 5.43159L5.64667 3.75684H6.67639V6.22551H6.04083L6.03961 4.29351L5.14311 6.22609H4.60044L3.7015 4.29059V6.22609L3.70089 6.22668ZM1.55956 4.17568L1.1385 5.16034H1.98306L1.55956 4.17568ZM13.1022 6.22609H12.4716V3.75684H13.1028V6.22551L13.1022 6.22609ZM9.19967 6.22609H7.13778V3.75684H9.20333V4.27018H7.75622V4.71526H9.1685V5.22218H7.755V5.71568H9.20211V6.22551L9.19967 6.22609Z" fill="black"/>
</g>
<defs>
<clipPath id="clip0_185_1193">
<rect width="22" height="14" fill="white"/>
</clipPath>
</defs>
</svg>
