<svg width="20" height="20" viewBox="0 0 20 20" fill="none" xmlns="http://www.w3.org/2000/svg">
<g id="simple-icons:klarna">
<path id="Vector" d="M3.82667 1.66663V18.3333H0V1.66663H3.82667ZM13.3767 1.66663C13.3767 5.16163 12.0575 8.42079 9.6975 10.89L9.46583 11.1258L14.7517 18.3333H10.0283L4.28417 10.5L5.76667 9.38996C8.14833 7.60663 9.54583 4.90829 9.63083 1.95329L9.635 1.66663H13.3767ZM17.9167 14.1666C18.4692 14.1666 18.9991 14.3861 19.3898 14.7768C19.7805 15.1675 20 15.6974 20 16.25C20 16.8025 19.7805 17.3324 19.3898 17.7231C18.9991 18.1138 18.4692 18.3333 17.9167 18.3333C17.3641 18.3333 16.8342 18.1138 16.4435 17.7231C16.0528 17.3324 15.8333 16.8025 15.8333 16.25C15.8333 15.6974 16.0528 15.1675 16.4435 14.7768C16.8342 14.3861 17.3641 14.1666 17.9167 14.1666Z" fill="black"/>
</g>
</svg>
