<svg width="22" height="18" viewBox="0 0 22 18" fill="none" xmlns="http://www.w3.org/2000/svg">
<g id="logos:mastercard" clip-path="url(#clip0_185_1188)">
<path id="Vector" d="M3.99975 17.4155V16.2904C3.99975 15.859 3.73558 15.5778 3.28277 15.5778C3.05641 15.5778 2.81115 15.6528 2.64134 15.8966C2.50934 15.6903 2.3207 15.5778 2.03771 15.5778C1.84899 15.5778 1.66045 15.634 1.50945 15.8403V15.6153H1.11328V17.4155H1.50945V16.4216C1.50945 16.1029 1.67927 15.9528 1.94344 15.9528C2.20744 15.9528 2.33961 16.1216 2.33961 16.4216V17.4155H2.73578V16.4216C2.73578 16.1029 2.92433 15.9528 3.16959 15.9528C3.43377 15.9528 3.56577 16.1216 3.56577 16.4216V17.4155H3.99975ZM9.86679 15.6153H9.22544V15.0714H8.82927V15.6153H8.47082V15.9715H8.82918V16.7967C8.82918 17.2093 8.99899 17.4531 9.4518 17.4531C9.62161 17.4531 9.81016 17.3968 9.94233 17.3218L9.82906 16.9842C9.71588 17.0592 9.58388 17.078 9.48952 17.078C9.30089 17.078 9.22544 16.9655 9.22544 16.7779V15.9715H9.86679V15.6153ZM13.2249 15.5777C12.9985 15.5777 12.8476 15.6903 12.7533 15.8403V15.6153H12.3571V17.4155H12.7533V16.4029C12.7533 16.1029 12.8853 15.9341 13.1305 15.9341C13.206 15.9341 13.3003 15.9529 13.3758 15.9716L13.489 15.5965C13.4135 15.5778 13.3003 15.5778 13.2249 15.5778M8.1501 15.7654C7.96138 15.6341 7.6973 15.5778 7.4143 15.5778C6.96159 15.5778 6.65977 15.8029 6.65977 16.1592C6.65977 16.4593 6.88613 16.628 7.2823 16.6843L7.47094 16.7031C7.67848 16.7405 7.79166 16.7968 7.79166 16.8906C7.79166 17.0218 7.64075 17.1156 7.37658 17.1156C7.11249 17.1156 6.90495 17.0218 6.77287 16.9281L6.58423 17.2281C6.79177 17.3781 7.07477 17.4531 7.35767 17.4531C7.88593 17.4531 8.18783 17.2094 8.18783 16.8718C8.18783 16.553 7.94256 16.3842 7.56521 16.328L7.37658 16.3092C7.20677 16.2904 7.07477 16.253 7.07477 16.1405C7.07477 16.0092 7.20677 15.9342 7.4143 15.9342C7.64075 15.9342 7.86711 16.0279 7.98029 16.0842L8.1501 15.7654ZM18.677 15.5778C18.4506 15.5778 18.2997 15.6903 18.2053 15.8404V15.6153H17.8091V17.4156H18.2053V16.403C18.2053 16.103 18.3374 15.9342 18.5826 15.9342C18.6581 15.9342 18.7525 15.953 18.8279 15.9717L18.9411 15.5966C18.8656 15.5778 18.7525 15.5778 18.677 15.5778ZM13.6211 16.5155C13.6211 17.0593 13.9983 17.4531 14.5832 17.4531C14.8473 17.4531 15.0359 17.3969 15.2246 17.2469L15.0359 16.9281C14.885 17.0406 14.7341 17.0968 14.5643 17.0968C14.2436 17.0968 14.0172 16.8718 14.0172 16.5155C14.0172 16.178 14.2436 15.9529 14.5643 15.9342C14.7341 15.9342 14.885 15.9904 15.0359 16.103L15.2246 15.7841C15.0359 15.6341 14.8473 15.5778 14.5832 15.5778C13.9983 15.5778 13.6211 15.9717 13.6211 16.5155ZM17.281 16.5155V15.6153H16.8848V15.8404C16.7527 15.6716 16.5641 15.5778 16.3188 15.5778C15.8095 15.5778 15.4133 15.9717 15.4133 16.5155C15.4133 17.0593 15.8095 17.4531 16.3188 17.4531C16.5829 17.4531 16.7716 17.3594 16.8848 17.1906V17.4156H17.281V16.5155ZM15.8283 16.5155C15.8283 16.1967 16.0358 15.9342 16.3754 15.9342C16.6961 15.9342 16.9225 16.178 16.9225 16.5155C16.9225 16.8343 16.6961 17.0968 16.3754 17.0968C16.0358 17.078 15.8283 16.8343 15.8283 16.5155ZM11.0931 15.5778C10.5649 15.5778 10.1875 15.9529 10.1875 16.5155C10.1875 17.0781 10.5648 17.4531 11.1119 17.4531C11.376 17.4531 11.6402 17.3781 11.8477 17.2094L11.659 16.9281C11.5081 17.0406 11.3195 17.1156 11.1308 17.1156C10.8856 17.1156 10.6403 17.0031 10.5837 16.6842H11.9232V16.5343C11.9421 15.9529 11.6026 15.5778 11.0931 15.5778ZM11.093 15.9154C11.3382 15.9154 11.5081 16.0655 11.5458 16.3468H10.6025C10.6402 16.103 10.81 15.9154 11.093 15.9154ZM20.9219 16.5155V14.9027H20.5257V15.8404C20.3936 15.6716 20.205 15.5778 19.9597 15.5778C19.4504 15.5778 19.0542 15.9717 19.0542 16.5155C19.0542 17.0593 19.4504 17.4531 19.9597 17.4531C20.2239 17.4531 20.4125 17.3594 20.5257 17.1906V17.4156H20.9219V16.5155ZM19.4693 16.5155C19.4693 16.1967 19.6767 15.9342 20.0164 15.9342C20.3371 15.9342 20.5634 16.178 20.5634 16.5155C20.5634 16.8343 20.3371 17.0968 20.0164 17.0968C19.6767 17.078 19.4693 16.8343 19.4693 16.5155ZM6.2257 16.5155V15.6153H5.82953V15.8404C5.69745 15.6716 5.50881 15.5778 5.26355 15.5778C4.7542 15.5778 4.35802 15.9717 4.35802 16.5155C4.35802 17.0593 4.7542 17.4531 5.26355 17.4531C5.52772 17.4531 5.71635 17.3594 5.82953 17.1906V17.4156H6.2257V16.5155ZM4.7542 16.5155C4.7542 16.1967 4.96173 15.9342 5.30127 15.9342C5.62199 15.9342 5.84844 16.178 5.84844 16.5155C5.84844 16.8343 5.62199 17.0968 5.30127 17.0968C4.96173 17.078 4.7542 16.8343 4.7542 16.5155Z" fill="black"/>
<path id="Vector_2" d="M8.01758 1.94397H13.9602V12.5584H8.01758V1.94397Z" fill="#FF5F00"/>
<path id="Vector_3" d="M8.39515 7.25122C8.39515 5.09461 9.41385 3.18173 10.9796 1.94397C9.82893 1.04383 8.37633 0.5 6.79164 0.5C3.03729 0.5 0 3.51925 0 7.25122C0 10.9831 3.03729 14.0024 6.79156 14.0024C8.37624 14.0024 9.82885 13.4586 10.9796 12.5584C9.41385 11.3394 8.39515 9.40783 8.39515 7.25122Z" fill="#EB001B"/>
<path id="Vector_4" d="M21.9777 7.25122C21.9777 10.9831 18.9404 14.0024 15.1861 14.0024C13.6014 14.0024 12.1488 13.4586 10.998 12.5584C12.5827 11.3207 13.5826 9.40783 13.5826 7.25122C13.5826 5.09461 12.5638 3.18173 10.998 1.94397C12.1488 1.04383 13.6014 0.5 15.1861 0.5C18.9404 0.5 21.9777 3.53805 21.9777 7.25122Z" fill="#F79E1B"/>
</g>
<defs>
<clipPath id="clip0_185_1188">
<rect width="22" height="17" fill="white" transform="translate(0 0.5)"/>
</clipPath>
</defs>
</svg>
