<svg width="16" height="20" viewBox="0 0 16 20" fill="none" xmlns="http://www.w3.org/2000/svg">
<g id="logos:paypal" clip-path="url(#clip0_185_1213)">
<path id="Vector" d="M13.5728 1.55679C12.7019 0.505004 11.1276 0.0540771 9.11371 0.0540771H3.26871C3.06945 0.054085 2.87672 0.129411 2.72519 0.266512C2.57366 0.403614 2.47325 0.593497 2.44202 0.802024L0.00826875 17.1575C-0.0401063 17.48 0.195581 17.772 0.504081 17.772H4.11258L5.01883 11.6812L4.99071 11.872C5.05527 11.4414 5.40277 11.1239 5.81427 11.1239H7.52902C10.8976 11.1239 13.5353 9.67408 14.3058 5.4801C14.3287 5.35606 14.3485 5.23534 14.3656 5.11739C14.2684 5.06282 14.2684 5.06282 14.3656 5.11739C14.5951 3.56726 14.3641 2.51209 13.5728 1.55679Z" fill="#27346A"/>
<path id="Vector_2" d="M6.39958 4.55898C6.49823 4.5092 6.60613 4.48341 6.71539 4.48348H11.2978C11.8404 4.48348 12.3465 4.5209 12.809 4.59977C12.9384 4.62164 13.0672 4.64774 13.1951 4.67805C13.3764 4.72043 13.5555 4.77231 13.732 4.83348C13.9593 4.91394 14.1711 5.00765 14.3657 5.11739C14.5951 3.56666 14.3641 2.51209 13.5728 1.55679C12.7014 0.505004 11.1276 0.0540771 9.11371 0.0540771H3.26821C2.85664 0.0540771 2.50652 0.371561 2.44202 0.802024L0.00826909 17.1569C-0.0401059 17.4799 0.195582 17.7716 0.503582 17.7716H4.11258L5.99277 5.13779C6.01126 5.01361 6.05794 4.89605 6.12881 4.79522C6.19967 4.69439 6.2926 4.61332 6.39958 4.55898Z" fill="#27346A"/>
<path id="Vector_3" d="M14.3054 5.48002C13.5349 9.6734 10.8973 11.1238 7.52859 11.1238H5.81334C5.40184 11.1238 5.05428 11.4413 4.99034 11.8719L3.8629 19.4451C3.82078 19.7273 4.02678 19.9831 4.29628 19.9831H7.33815C7.5124 19.983 7.68092 19.9171 7.81339 19.7972C7.94587 19.6772 8.03361 19.5111 8.06084 19.3288L8.09047 19.1645L8.66378 15.3145L8.70072 15.1017C8.72795 14.9193 8.81568 14.7532 8.94814 14.6333C9.0806 14.5134 9.2491 14.4474 9.42334 14.4474H9.87859C12.8253 14.4474 15.1326 13.1789 15.8068 9.51029C16.0883 7.97718 15.9427 6.69718 15.1982 5.7981C14.9723 5.52579 14.6919 5.30089 14.3652 5.11731C14.3475 5.23585 14.3283 5.35598 14.3054 5.48002Z" fill="#2790C3"/>
<path id="Vector_4" d="M13.5602 4.77671C13.4401 4.73954 13.3188 4.70663 13.1966 4.67804C13.0687 4.64822 12.9399 4.6223 12.8106 4.60029C12.3476 4.52088 11.8418 4.4834 11.2987 4.4834H6.71688C6.60753 4.48314 6.49955 4.50915 6.40106 4.55949C6.29396 4.61367 6.20093 4.69469 6.13003 4.79555C6.05913 4.8964 6.01251 5.01405 5.99419 5.1383L5.02031 11.6812L4.99219 11.8719C5.05625 11.4414 5.40375 11.1239 5.81531 11.1239H7.53056C10.8992 11.1239 13.5368 9.67406 14.3073 5.48009C14.3302 5.35605 14.3495 5.23585 14.3672 5.11737C14.1721 5.00824 13.9609 4.91393 13.7334 4.834C13.676 4.81384 13.6183 4.79474 13.5603 4.77671" fill="#1F264F"/>
</g>
<defs>
<clipPath id="clip0_185_1213">
<rect width="16" height="20" fill="white"/>
</clipPath>
</defs>
</svg>
