<svg width="28" height="10" viewBox="0 0 28 10" fill="none" xmlns="http://www.w3.org/2000/svg">
<g id="logos:visa" clip-path="url(#clip0_185_1180)">
<path id="Vector" d="M14.4809 3.36568C14.465 4.6144 15.6034 5.31119 16.461 5.72552C17.3422 6.15058 17.6381 6.42318 17.6346 6.80335C17.6281 7.3851 16.9318 7.64187 16.2803 7.65184C15.1435 7.6693 14.4826 7.34758 13.9571 7.10425L13.5476 9.0039C14.0748 9.24474 15.051 9.45477 16.0632 9.46399C18.4394 9.46399 19.994 8.30115 20.0024 6.49822C20.0117 4.21005 16.81 4.0834 16.8318 3.06065C16.8394 2.75053 17.1379 2.41959 17.7919 2.33545C18.1157 2.29294 19.0094 2.26041 20.0226 2.72299L20.4203 0.885036C19.8754 0.688338 19.1751 0.499989 18.3031 0.499989C16.0666 0.499989 14.4936 1.67866 14.4809 3.36568ZM24.2417 0.658301C23.8078 0.658301 23.4421 0.909217 23.2789 1.29427L19.8847 9.32899H22.2591L22.7316 8.0344H25.6331L25.9072 9.32899H28L26.1738 0.658301H24.2417ZM24.5738 3.00058L25.2591 6.25652H23.3824L24.5738 3.00058ZM11.6021 0.65841L9.73044 9.32888H11.9931L13.8638 0.658194L11.6021 0.65841ZM8.25486 0.65841L5.8998 6.55992L4.94714 1.54193C4.83536 0.98176 4.39392 0.658301 3.9037 0.658301H0.0539219L0 0.910085C0.790344 1.08011 1.68831 1.35434 2.23234 1.64776C2.56528 1.827 2.66022 1.98369 2.76959 2.40962L4.57395 9.32899H6.965L10.6308 0.658301L8.25486 0.65841Z" fill="url(#paint0_linear_185_1180)"/>
</g>
<defs>
<linearGradient id="paint0_linear_185_1180" x1="1287.27" y1="27.4458" x2="1313" y2="-893.183" gradientUnits="userSpaceOnUse">
<stop stop-color="#222357"/>
<stop offset="1" stop-color="#254AA5"/>
</linearGradient>
<clipPath id="clip0_185_1180">
<rect width="28" height="9" fill="white" transform="translate(0 0.5)"/>
</clipPath>
</defs>
</svg>
