<svg width="20" height="20" viewBox="0 0 20 20" fill="none" xmlns="http://www.w3.org/2000/svg">
<g id="solar:share-linear">
<g id="Group">
<path id="Vector" d="M7.50065 9.99996C7.50065 10.5525 7.28116 11.0824 6.89046 11.4731C6.49976 11.8638 5.96985 12.0833 5.41732 12.0833C4.86478 12.0833 4.33488 11.8638 3.94418 11.4731C3.55348 11.0824 3.33398 10.5525 3.33398 9.99996C3.33398 9.44742 3.55348 8.91752 3.94418 8.52682C4.33488 8.13612 4.86478 7.91663 5.41732 7.91663C5.96985 7.91663 6.49976 8.13612 6.89046 8.52682C7.28116 8.91752 7.50065 9.44742 7.50065 9.99996Z" stroke="#1CD29B" stroke-width="1.5"/>
<path id="Vector_2" d="M11.6667 5.41663L7.5 8.33329M11.6667 14.5833L7.5 11.6666" stroke="#1CD29B" stroke-width="1.5" stroke-linecap="round"/>
<path id="Vector_3" d="M15.8346 15.4167C15.8346 15.9692 15.6151 16.4991 15.2244 16.8898C14.8337 17.2805 14.3038 17.5 13.7513 17.5C13.1988 17.5 12.6689 17.2805 12.2782 16.8898C11.8875 16.4991 11.668 15.9692 11.668 15.4167C11.668 14.8641 11.8875 14.3342 12.2782 13.9435C12.6689 13.5528 13.1988 13.3333 13.7513 13.3333C14.3038 13.3333 14.8337 13.5528 15.2244 13.9435C15.6151 14.3342 15.8346 14.8641 15.8346 15.4167ZM15.8346 4.58333C15.8346 5.13587 15.6151 5.66577 15.2244 6.05647C14.8337 6.44717 14.3038 6.66667 13.7513 6.66667C13.1988 6.66667 12.6689 6.44717 12.2782 6.05647C11.8875 5.66577 11.668 5.13587 11.668 4.58333C11.668 4.0308 11.8875 3.50089 12.2782 3.11019C12.6689 2.71949 13.1988 2.5 13.7513 2.5C14.3038 2.5 14.8337 2.71949 15.2244 3.11019C15.6151 3.50089 15.8346 4.0308 15.8346 4.58333Z" stroke="#1CD29B" stroke-width="1.5"/>
</g>
</g>
</svg>
