<svg width="39" height="26" viewBox="0 0 39 26" fill="none" xmlns="http://www.w3.org/2000/svg">
<g id="twemoji:flag-us-outlying-islands" clip-path="url(#clip0_210_1855)">
<path id="Vector" d="M38.3988 1.94692C37.648 0.750164 36.2668 -0.0627441 34.6667 -0.0627441H19.5V1.94692H38.3988ZM0 20.0339H39V22.0435H0V20.0339ZM19.5 11.9952H39V14.0049H19.5V11.9952ZM19.5 7.9759H39V9.98557H19.5V7.9759ZM0 16.0146H39V18.0242H0V16.0146ZM4.33333 26.0629H34.6667C36.2668 26.0629 37.648 25.25 38.3988 24.0532H0.60125C1.352 25.25 2.73325 26.0629 4.33333 26.0629ZM19.5 3.95658H39V5.96624H19.5V3.95658Z" fill="#B22334"/>
<path id="Vector_2" d="M0.0736667 22.7257C0.0920833 22.8191 0.112667 22.9126 0.137583 23.004C0.16575 23.1055 0.200417 23.203 0.23725 23.3014C0.333667 23.5617 0.450667 23.8129 0.598 24.048L0.60125 24.0531H38.3988L38.4009 24.049C38.5463 23.8121 38.6668 23.5628 38.7606 23.3045C38.8319 23.1159 38.887 22.9223 38.9253 22.7257C38.9697 22.5046 39 22.2775 39 22.0434H0C0 22.2775 0.0303333 22.5036 0.0736667 22.7257ZM0 18.0241H39V20.0337H0V18.0241ZM0 14.0047V16.0144H39V14.0047H19.5H0ZM19.5 9.98542H39V11.9951H19.5V9.98542ZM19.5 5.9661H39V7.97576H19.5V5.9661ZM0.138667 2.99582C0.16575 2.89333 0.203667 2.79586 0.238333 2.69739C0.200712 2.79555 0.167462 2.89512 0.138667 2.99582ZM19.5 3.95644H39C39 3.72231 38.9697 3.49522 38.9253 3.27315C38.8873 3.07631 38.8319 2.88273 38.7595 2.69437C38.6656 2.43494 38.5448 2.18457 38.3988 1.94678H19.5V3.95644Z" fill="#EEEEEE"/>
<path id="Vector_3" d="M19.5 -0.0627441H4.33333C3.18406 -0.0627441 2.08186 0.360719 1.2692 1.11449C0.456546 1.86826 0 2.89059 0 3.95658L0 14.0049H19.5V-0.0627441Z" fill="#3C3B6E"/>
<path id="Vector_4" d="M2.16797 2.67628L2.83747 3.12745L2.5818 3.85596L3.25022 3.40579L3.91972 3.85596L3.66405 3.12745L4.33355 2.67628H3.50589L3.25022 1.94678L2.99564 2.67628H2.16797ZM4.33463 4.68595L5.00413 5.13712L4.74847 5.86562L5.41688 5.41545L6.08638 5.86562L5.83072 5.13712L6.50022 4.68595H5.67255L5.41688 3.95644L5.1623 4.68595H4.33463ZM8.66797 4.68595L9.33747 5.13712L9.0818 5.86562L9.75022 5.41545L10.4197 5.86562L10.164 5.13712L10.8335 4.68595H10.0059L9.75022 3.95644L9.49563 4.68595H8.66797ZM13.0013 4.68595L13.6708 5.13712L13.4151 5.86562L14.0835 5.41545L14.753 5.86562L14.4974 5.13712L15.1669 4.68595H14.3392L14.0835 3.95644L13.829 4.68595H13.0013ZM4.33463 8.70527L5.00413 9.15644L4.74847 9.88494L5.41688 9.43478L6.08638 9.88494L5.83072 9.15644L6.50022 8.70527H5.67255L5.41688 7.97576L5.1623 8.70527H4.33463ZM8.66797 8.70527L9.33747 9.15644L9.0818 9.88494L9.75022 9.43478L10.4197 9.88494L10.164 9.15644L10.8335 8.70527H10.0059L9.75022 7.97576L9.49563 8.70527H8.66797ZM13.0013 8.70527L13.6708 9.15644L13.4151 9.88494L14.0835 9.43478L14.753 9.88494L14.4974 9.15644L15.1669 8.70527H14.3392L14.0835 7.97576L13.829 8.70527H13.0013ZM6.5013 2.67628L7.1708 3.12745L6.91513 3.85596L7.58355 3.40579L8.25305 3.85596L7.99738 3.12745L8.66688 2.67628H7.83922L7.58355 1.94678L7.32897 2.67628H6.5013ZM10.8346 2.67628L11.5041 3.12745L11.2485 3.85596L11.9169 3.40579L12.5864 3.85596L12.3307 3.12745L13.0002 2.67628H12.1726L11.9169 1.94678L11.6623 2.67628H10.8346ZM15.168 2.67628L15.8375 3.12745L15.5818 3.85596L16.2502 3.40579L16.9197 3.85596L16.664 3.12745L17.3335 2.67628H16.5059L16.2502 1.94678L15.9956 2.67628H15.168ZM2.16797 6.69561L2.83747 7.14678L2.5818 7.87528L3.25022 7.42511L3.91972 7.87528L3.66405 7.14678L4.33355 6.69561H3.50589L3.25022 5.9661L2.99564 6.69561H2.16797ZM6.91513 7.87528L7.58355 7.42511L8.25305 7.87528L7.99738 7.14678L8.66688 6.69561H7.83922L7.58355 5.9661L7.32897 6.69561H6.5013L7.1708 7.14678L6.91513 7.87528ZM10.8346 6.69561L11.5041 7.14678L11.2485 7.87528L11.9169 7.42511L12.5864 7.87528L12.3307 7.14678L13.0002 6.69561H12.1726L11.9169 5.9661L11.6623 6.69561H10.8346ZM15.168 6.69561L15.8375 7.14678L15.5818 7.87528L16.2502 7.42511L16.9197 7.87528L16.664 7.14678L17.3335 6.69561H16.5059L16.2502 5.9661L15.9956 6.69561H15.168ZM2.16797 10.7149L2.83747 11.1661L2.5818 11.8946L3.25022 11.4444L3.91972 11.8946L3.66405 11.1661L4.33355 10.7149H3.50589L3.25022 9.98542L2.99564 10.7149H2.16797ZM6.91513 11.8946L7.58355 11.4444L8.25305 11.8946L7.99738 11.1661L8.66688 10.7149H7.83922L7.58355 9.98542L7.32897 10.7149H6.5013L7.1708 11.1661L6.91513 11.8946ZM10.8346 10.7149L11.5041 11.1661L11.2485 11.8946L11.9169 11.4444L12.5864 11.8946L12.3307 11.1661L13.0002 10.7149H12.1726L11.9169 9.98542L11.6623 10.7149H10.8346ZM15.168 10.7149L15.8375 11.1661L15.5818 11.8946L16.2502 11.4444L16.9197 11.8946L16.664 11.1661L17.3335 10.7149H16.5059L16.2502 9.98542L15.9956 10.7149H15.168Z" fill="white"/>
</g>
<defs>
<clipPath id="clip0_210_1855">
<rect width="39" height="26" fill="white"/>
</clipPath>
</defs>
</svg>
