<svg width="39" height="28" viewBox="0 0 39 28" fill="none" xmlns="http://www.w3.org/2000/svg">
<g id="twemoji:flag-pakistan" clip-path="url(#clip0_210_1850)">
<path id="Vector" d="M34.6667 0.181519H9.75V27.8186H34.6667C35.8159 27.8186 36.9181 27.3706 37.7308 26.5732C38.5435 25.7758 39 24.6944 39 23.5667V4.43337C39 3.30571 38.5435 2.22423 37.7308 1.42686C36.9181 0.62948 35.8159 0.181519 34.6667 0.181519ZM24.375 21.9425C22.2201 21.9425 20.1535 21.1026 18.6298 19.6075C17.106 18.1124 16.25 16.0846 16.25 13.9703C16.25 10.0161 19.1869 6.74319 23.0349 6.11498C21.5798 6.77657 20.3986 7.90601 19.6869 9.31625C18.9753 10.7265 18.776 12.3329 19.1219 13.8695C19.4679 15.4061 20.3383 16.7807 21.5892 17.7655C22.84 18.7504 24.3962 19.2865 26 19.2851C27.3415 19.2845 28.6549 18.9076 29.7854 18.1989C30.9159 17.4903 31.8164 16.4793 32.3808 15.2852C31.7406 19.0619 28.405 21.9425 24.375 21.9425ZM29.9108 10.8622L28.5968 13.0115L28.3714 10.5146L25.8819 9.95334L28.2328 8.97116L28.0085 6.47426L29.6855 8.36527L32.0363 7.38309L30.7233 9.53347L32.4003 11.4245L29.9108 10.8622Z" fill="#004600"/>
<path id="Vector_2" d="M4.33333 0.181519C3.18406 0.181519 2.08186 0.62948 1.2692 1.42686C0.456546 2.22423 0 3.30571 0 4.43337L0 23.5667C0 24.6944 0.456546 25.7758 1.2692 26.5732C2.08186 27.3706 3.18406 27.8186 4.33333 27.8186H9.75V0.181519H4.33333Z" fill="#EEEEEE"/>
<path id="Vector_3" d="M32.0372 7.38308L29.6864 8.36525L28.0094 6.47424L28.2336 8.97114L25.8828 9.95332L28.3723 10.5146L28.5976 13.0115L29.9117 10.8622L32.4012 11.4245L30.7242 9.53345L32.0372 7.38308Z" fill="white"/>
<path id="Vector_4" d="M26 19.2851C24.3962 19.2865 22.84 18.7504 21.5892 17.7655C20.3383 16.7807 19.4679 15.4061 19.1219 13.8695C18.776 12.3329 18.9753 10.7265 19.6869 9.31627C20.3986 7.90602 21.5798 6.77658 23.0349 6.11499C19.1869 6.74426 16.25 10.0171 16.25 13.9703C16.25 16.0847 17.106 18.1124 18.6298 19.6075C20.1535 21.1026 22.2201 21.9425 24.375 21.9425C28.405 21.9425 31.7406 19.0608 32.3808 15.2852C31.8166 16.4795 30.9162 17.4906 29.7856 18.1993C28.6551 18.908 27.3416 19.2847 26 19.2851Z" fill="white"/>
</g>
<defs>
<clipPath id="clip0_210_1850">
<rect width="39" height="28" fill="white"/>
</clipPath>
</defs>
</svg>
