<svg width="39" height="26" viewBox="0 0 39 26" fill="none" xmlns="http://www.w3.org/2000/svg">
<g id="emojione-v1:flag-for-saudi-arabia" clip-path="url(#clip0_210_1860)">
<path id="Vector" d="M39 19.5C39 23.0898 36.9446 26 32.9062 26H6.09375C2.05542 26 0 23.0898 0 19.5V6.5C0 2.91023 2.05542 0 6.09375 0H32.9062C36.9446 0 39 2.91023 39 6.5V19.5Z" fill="#137A08"/>
<g id="Group">
<path id="Vector_2" fill-rule="evenodd" clip-rule="evenodd" d="M18.6425 12.5982C18.5992 12.0114 18.6961 11.8643 19.389 11.4749C19.1922 11.3012 18.9545 11.261 18.7108 11.2427C18.4189 11.2214 18.1276 11.2119 17.8388 11.1853C17.6901 11.1729 17.662 11.1162 17.6901 10.9738C17.7681 10.5838 17.9765 10.3132 18.386 10.1897C18.7845 10.0685 19.1739 9.91842 19.5785 9.77601C19.5657 9.74233 19.5493 9.70924 19.534 9.67497C19.4885 9.59138 19.4635 9.49876 19.4609 9.40428C19.4582 9.30981 19.478 9.21601 19.5188 9.13015C19.5511 9.06279 19.587 8.99542 19.6273 8.93338C19.8771 8.54633 20.1196 8.47483 20.5444 8.66865C20.6784 8.73011 20.8088 8.80397 20.9252 8.89201C21.2628 9.1467 21.2933 9.50597 20.9917 9.8032C20.8655 9.92433 20.6949 10.0077 20.5432 10.1075C20.456 10.1631 20.3159 10.1477 20.2854 10.2848C20.2836 10.2954 20.2324 10.2966 20.2043 10.3013C20.1282 10.3055 20.0447 10.2901 19.9764 10.3161C19.6504 10.4331 19.3293 10.5596 19.0081 10.6872C18.9582 10.7049 18.9149 10.7374 18.8668 10.7628L18.8753 10.8018C19.1629 10.8018 19.4542 10.806 19.7412 10.8001C20.3853 10.7841 21.0307 10.764 21.6748 10.7445C21.8844 10.7398 21.9094 10.7776 21.8466 10.972C21.8319 11.0137 21.818 11.0556 21.8052 11.0979C21.743 11.3171 21.5895 11.4152 21.3622 11.4489C20.6723 11.5446 20.013 11.7573 19.3652 12.0067C19.2165 12.0658 19.063 12.1456 19.0557 12.3211C19.0502 12.493 19.1806 12.6012 19.3232 12.6768C19.4676 12.7518 19.6212 12.8062 19.7717 12.8635C19.9435 12.9261 19.9746 12.9752 19.9301 13.143C19.8326 13.494 19.8229 13.5147 19.4341 13.4745C18.6565 13.393 17.9783 13.1194 17.52 12.4629C17.4274 12.3293 17.3573 12.1792 17.2653 12.0179C17.2282 12.064 17.1916 12.106 17.155 12.1503C16.8625 12.5397 16.5457 12.9084 16.1423 13.2003C15.8516 13.4125 15.5438 13.5785 15.1599 13.5702C14.7072 13.5596 14.4244 13.3362 14.3373 12.9013C14.3263 12.8476 14.3141 12.795 14.3025 12.7442C13.8796 12.896 13.464 13.0467 13.0491 13.1897C12.8455 13.2576 12.6408 13.3197 12.4336 13.3735C12.3611 13.393 12.2819 13.3859 12.2057 13.39C12.1972 13.3723 12.188 13.3546 12.1819 13.3357C12.2392 13.2967 12.294 13.2523 12.3544 13.2186C12.9698 12.8718 13.5792 12.5243 14.1947 12.1798C14.2904 12.1261 14.3342 12.0504 14.3665 11.9512C14.4616 11.6847 14.5676 11.4229 14.673 11.1593C14.6925 11.1097 14.7285 11.0695 14.7773 10.9927C14.8955 11.2444 14.7827 11.4796 14.8412 11.7142C14.8772 11.6959 14.9125 11.6787 14.9393 11.6563C15.1654 11.4755 15.3945 11.3006 15.6097 11.1097C15.9095 10.842 15.954 10.6181 15.7931 10.2564C15.7017 10.0567 15.5993 9.86229 15.4963 9.66847C15.4764 9.62907 15.4439 9.59695 15.4037 9.57688C15.2812 9.50774 15.244 9.40847 15.2897 9.28674C15.3428 9.15261 15.4043 9.0232 15.4732 8.89733C15.5262 8.8022 15.6182 8.7886 15.6889 8.86838C15.8461 9.0427 15.9948 9.22588 16.1325 9.4132C16.2142 9.52429 16.1691 9.61056 16.046 9.6472C16.1081 9.88711 16.1782 10.1211 16.2276 10.3581C16.322 10.8308 16.1721 11.2367 15.8461 11.5907C15.542 11.9222 15.2063 12.2171 14.8095 12.4452C14.7608 12.4723 14.7218 12.5521 14.7242 12.6094C14.7255 12.7388 14.7815 12.8706 14.9205 12.8948C15.0825 12.9232 15.2605 12.9374 15.4159 12.9013C15.7876 12.8192 16.085 12.5935 16.3305 12.3246C16.5761 12.0504 16.7827 11.7408 17.0051 11.4477C17.0715 11.3591 17.074 11.271 17.0411 11.1658C16.8357 10.5501 16.6389 9.92906 16.436 9.31392C16.3379 9.0167 16.439 8.62079 16.6718 8.44824C16.7114 8.51206 16.7498 8.57115 16.7833 8.63556C17.2013 9.46697 17.4512 10.3451 17.5749 11.261C17.6188 11.6013 17.6852 11.9405 17.9356 12.2106C18.1233 12.4144 18.3677 12.5297 18.6425 12.5982ZM20.5553 9.52015C20.5566 9.50597 20.5566 9.4906 20.5566 9.4776C20.3798 9.40079 20.2397 9.24538 19.9898 9.24538C20.0081 9.38424 20.024 9.50538 20.0398 9.64956L20.5553 9.52015ZM25.8441 20.4206C25.5224 20.4206 25.2372 20.4159 24.9502 20.4236C24.3615 20.436 23.7753 20.4632 23.1836 20.4673C19.8698 20.4916 16.553 20.5128 13.2374 20.5247C12.631 20.5258 12.0217 20.4856 11.4312 20.3226C11.1539 20.2457 10.8943 20.1293 10.689 19.9207C10.6402 19.8711 10.5988 19.8085 10.5293 19.721H10.7944C14.4384 19.7435 18.0825 19.7724 21.7253 19.7884C23.0306 19.7961 24.3335 19.7807 25.6388 19.7724C25.6912 19.7724 25.7844 19.7559 25.7868 19.7387C25.7966 19.6743 25.799 19.5851 25.7594 19.5449C25.5796 19.3517 25.6814 19.1939 25.8216 19.032C25.8782 18.967 25.938 18.957 26.0007 19.0285C26.1726 19.2288 26.2237 19.3328 26.0702 19.5237C26.0269 19.578 26.03 19.6678 26.0068 19.7559C26.0745 19.7612 26.1147 19.7689 26.1525 19.7677C26.774 19.7571 27.3901 19.7441 28.0104 19.7316C28.1274 19.7316 28.2463 19.7393 28.3633 19.7529C28.6436 19.7842 28.7923 19.9166 28.8532 20.1872C28.9056 20.4136 28.9056 20.6422 28.8154 20.8615C28.6948 21.1581 28.4163 21.2184 28.1683 21.0074C28.1252 20.9764 28.0738 20.9581 28.0202 20.9548C27.8617 20.9501 27.7027 20.9548 27.5443 20.956C27.4267 20.9578 27.3097 20.9401 27.2237 21.0689C27.1677 21.1522 27.0653 21.1173 26.9769 21.063C26.9132 21.0215 26.8404 20.9952 26.7643 20.9861C26.6369 20.9755 26.5077 20.9921 26.381 20.9838C26.2317 20.9767 26.111 21.0009 26.044 21.1516C26.0062 21.2326 25.938 21.2296 25.8703 21.1676C25.6869 21.0074 25.6717 20.8774 25.7941 20.6653C25.8301 20.6021 25.8252 20.5187 25.8441 20.4206ZM28.022 20.7457L28.0592 20.3645C28.0287 20.3616 28.0037 20.3521 27.9806 20.3521C27.3834 20.3669 26.7868 20.3793 26.1884 20.3964C26.0489 20.4006 25.9958 20.4945 26.0647 20.6168C26.125 20.7208 26.1969 20.8059 26.3535 20.7787C26.4931 20.7569 26.6387 20.774 26.7801 20.761C26.8454 20.7535 26.9066 20.7262 26.955 20.683C27.0513 20.5944 27.1421 20.5967 27.2408 20.6682C27.281 20.6996 27.3231 20.7403 27.3645 20.7421C27.582 20.7516 27.802 20.7457 28.022 20.7457Z" fill="white"/>
<path id="Vector_3" fill-rule="evenodd" clip-rule="evenodd" d="M11.6632 10.3876C11.4986 10.4349 11.3347 10.4821 11.1708 10.5347C11.002 10.5855 10.8448 10.5471 10.6979 10.4739C10.6504 10.4532 10.5974 10.4 10.5907 10.358C10.5346 9.95976 10.5115 9.56681 10.8107 9.22881C11.0191 8.99067 11.2287 8.9499 11.4657 9.16086C11.6473 9.31922 11.796 9.51186 11.9727 9.7039C12.0288 9.67258 12.1172 9.63299 12.1945 9.57922C12.2118 9.56416 12.2257 9.54587 12.2354 9.52545C12.2452 9.50504 12.2505 9.48293 12.2512 9.46045C12.2073 8.95817 12.158 8.45235 12.108 7.9489C12.052 7.38222 11.9935 6.81672 11.935 6.24886C11.9317 6.20983 11.9243 6.17122 11.913 6.13363C11.8368 5.90731 11.9691 5.6154 12.2037 5.52381C12.2329 5.5114 12.3109 5.54508 12.3274 5.5764C12.3835 5.68808 12.4218 5.80685 12.4657 5.92326C12.5468 6.13658 12.6272 6.35226 12.7064 6.56558C12.7293 6.62028 12.7433 6.67809 12.7479 6.73695C12.7649 6.94199 12.6814 7.0064 12.4791 6.95322C12.5328 7.72613 12.59 8.49726 12.6491 9.29795C12.7405 9.22586 12.8045 9.1644 12.877 9.11595C12.9252 9.08404 12.9843 9.06926 13.0385 9.04622C13.0623 9.10413 13.0995 9.1579 13.105 9.21522C13.1196 9.31508 13.0928 9.42145 13.1238 9.51186C13.158 9.6064 13.2195 9.73108 13.3006 9.76122C13.3798 9.79017 13.54 9.74526 13.5937 9.67849C13.7259 9.52072 13.8204 9.33281 13.9246 9.15317C13.9508 9.10767 13.9672 9.05804 13.9879 9.01076H14.0355C14.0556 9.10945 14.0684 9.21404 14.1001 9.30976C14.1378 9.42085 14.175 9.54199 14.2445 9.63004C14.3639 9.78072 14.5303 9.74467 14.5717 9.56563C14.5967 9.45335 14.5857 9.32926 14.5675 9.21699C14.5437 9.09054 14.5955 8.96822 14.7228 8.94517C14.7582 8.93986 14.8295 8.98181 14.8398 9.0149C14.9258 9.32572 14.9191 9.63831 14.7856 9.93317C14.6784 10.1648 14.2536 10.1796 14.0361 9.97336C13.9965 9.93613 13.9605 9.89004 13.9093 9.83626C13.7436 10.0017 13.5723 10.1512 13.3213 10.1737C13.0714 10.1955 12.8691 10.1317 12.7314 9.88945C12.7143 9.94026 12.6973 9.96567 12.6973 9.99167C12.7076 10.2505 12.7217 10.5081 12.7314 10.7658C12.7503 11.229 12.7235 11.6864 12.5297 12.1219C12.3726 12.4769 12.0902 12.766 11.7332 12.9374C11.1489 13.2257 10.5322 13.413 9.86917 13.416C9.75339 13.416 9.63334 13.3965 9.52061 13.374C9.07942 13.2854 8.85822 12.9923 8.74914 12.594C8.57791 11.9718 8.61813 11.3596 8.83324 10.7528C8.85152 10.7014 8.88625 10.6535 8.91245 10.605C8.92738 10.6102 8.94296 10.6134 8.95877 10.6145C8.95877 10.7782 8.97766 10.9442 8.95694 11.1026C8.9027 11.4902 8.91916 11.8649 9.05992 12.2306C9.1885 12.5698 9.45053 12.7601 9.82286 12.7814C10.5474 12.8215 11.1665 12.5539 11.7424 12.1538C12.1409 11.8767 12.2994 11.4961 12.2994 11.0382C12.2975 10.7404 12.2994 10.4414 12.2994 10.1234C12.1842 10.1713 12.0507 10.1749 12.0696 10.3338C12.1671 11.2072 11.6577 11.7118 10.9356 12.0805C10.7406 12.1816 10.5255 12.2661 10.3085 12.308C9.75339 12.4162 9.25492 12.0522 9.16961 11.5079C9.10928 11.1185 9.17631 10.7392 9.27503 10.3628C9.29209 10.3025 9.34023 10.2505 9.37314 10.1926C9.38587 10.1987 9.39941 10.203 9.41336 10.2056C9.41336 10.2812 9.42067 10.3563 9.41336 10.4301C9.38411 10.7297 9.38228 11.0269 9.51208 11.3076C9.68453 11.6864 9.96424 11.8069 10.3689 11.6775C10.8716 11.5168 11.2592 11.1971 11.5852 10.8071C11.6693 10.7049 11.6754 10.5477 11.7174 10.4148C11.7022 10.4047 11.6815 10.3959 11.6632 10.3876ZM11.4804 9.89949C11.4072 9.81322 11.3664 9.73699 11.3036 9.69622C11.2336 9.65013 11.1403 9.63476 11.0599 9.6064C11.0398 9.68795 10.9965 9.77304 11.0099 9.85045C11.0154 9.89831 11.1044 9.96508 11.1586 9.96922C11.2555 9.97217 11.3524 9.93022 11.4804 9.89949ZM28.9578 8.62726C28.9743 8.96349 28.9944 9.29795 29.0102 9.63476C29.0383 10.1955 29.0815 10.7545 29.0797 11.3141C29.0759 11.5416 29.0181 11.7653 28.9109 11.9677C28.6483 12.4623 28.1864 12.5267 27.6922 12.2289C27.5398 12.1384 27.4234 11.9884 27.3064 11.8507C27.2388 11.775 27.1888 11.7549 27.1285 11.8347C27.0398 11.9489 26.9584 12.0683 26.8847 12.1922C26.6958 12.5219 26.5167 12.857 26.3296 13.1873C26.292 13.2577 26.2397 13.3197 26.176 13.3693C26.12 13.4095 26.0335 13.4432 25.9689 13.4349C25.6441 13.3841 25.1779 12.8724 25.1828 12.5503C25.1846 12.2755 25.2212 11.9984 25.2638 11.7248C25.29 11.5469 25.3491 11.3756 25.3942 11.2007C25.4168 11.203 25.4387 11.203 25.4594 11.2048C25.4716 11.2911 25.496 11.3774 25.496 11.4642C25.4917 11.8412 25.521 12.2058 25.6794 12.5556C25.6995 12.5958 25.7172 12.6384 25.7422 12.6756C25.861 12.8576 26.0133 12.8641 26.1395 12.685C26.2065 12.5869 26.2565 12.4776 26.3174 12.3736C26.5411 11.9901 26.7568 11.5995 26.992 11.2243C27.1431 10.9803 27.2912 10.9803 27.4899 11.1971C27.619 11.3413 27.7336 11.505 27.8768 11.6344C28.0925 11.8282 28.3966 11.7567 28.4978 11.489C28.5532 11.3324 28.5934 11.1593 28.5867 10.995C28.5581 10.1997 28.5148 9.40017 28.4728 8.60481C28.4618 8.43108 28.435 8.25617 28.4368 8.08363C28.4417 7.9301 28.3861 7.78054 28.2814 7.66526C27.9792 7.30304 27.6885 6.93076 27.3863 6.56854C27.2321 6.38654 27.1364 6.20158 27.1718 5.95931C27.1907 5.84704 27.1687 5.72885 27.1779 5.61599C27.1827 5.56695 27.2041 5.49486 27.24 5.47772C27.2766 5.46176 27.354 5.48717 27.3875 5.51908C27.6233 5.73299 27.8537 5.95045 28.0797 6.17263C28.1772 6.26717 28.159 6.32508 28.0151 6.4149C28.1041 6.54313 28.1949 6.66958 28.282 6.79486C28.2976 6.79142 28.3132 6.78866 28.329 6.78658C28.3009 6.58036 28.307 6.36231 28.2376 6.1744C28.1285 5.88545 28.2418 5.67154 28.4051 5.46117C28.4904 5.35067 28.5581 5.42335 28.594 5.51199C28.6855 5.73831 28.7714 5.96345 28.8549 6.1939C28.9067 6.33395 28.9481 6.47931 29.0011 6.64654C28.9152 6.64122 28.8701 6.6359 28.8287 6.63236C28.8274 6.64299 28.8207 6.65008 28.8207 6.65954C28.8396 6.95676 28.8567 7.25636 28.8786 7.55181C28.8817 7.58549 28.8847 7.62272 28.9048 7.6499C29.1145 7.93885 29.3314 8.22781 29.5703 8.50554C29.5367 8.29045 29.4953 8.0724 29.4728 7.85554C29.4082 7.26876 29.3692 6.67904 29.2845 6.09581C29.2491 5.84645 29.3034 5.64908 29.452 5.46117C29.5684 5.31522 29.6653 5.31817 29.722 5.4919C29.8384 5.8494 29.9402 6.21399 30.0358 6.57976C30.0712 6.71213 30.0108 6.76295 29.8555 6.76885C29.8896 7.23981 29.9249 7.70958 29.9627 8.17699C29.9877 8.47599 30.0108 8.77381 30.0462 9.06808C30.0578 9.15081 30.0858 9.24181 30.1339 9.31331C30.4228 9.73995 30.7238 10.1613 31.0102 10.5879C31.1985 10.8692 31.2978 11.1782 31.2729 11.5174C31.2698 11.5641 31.2601 11.609 31.2509 11.7012C30.8725 11.1629 30.5215 10.6659 30.1717 10.1666C30.1303 10.7002 30.2656 11.2338 29.9993 11.7254C29.9828 11.7254 29.9633 11.7254 29.9469 11.7266C29.9371 11.6533 29.9152 11.5812 29.9188 11.5056C29.9432 10.9206 29.8969 10.3368 29.7872 9.76181C29.7787 9.72281 29.7732 9.67908 29.7488 9.64954C29.5008 9.30445 29.2479 8.96349 28.9962 8.62017C28.9834 8.62195 28.97 8.6249 28.9578 8.62726Z" fill="white"/>
<path id="Vector_4" fill-rule="evenodd" clip-rule="evenodd" d="M10.1865 5.90731C10.4571 6.10762 10.5808 6.34458 10.5503 6.63412C10.5101 6.99517 10.5973 7.33376 10.6941 7.67294C10.7654 7.91758 10.9178 8.01863 11.1634 8.02572C11.3651 8.02867 11.4455 7.95067 11.4029 7.76158C11.3279 7.44426 11.2365 7.1299 11.1518 6.81553C11.1355 6.75219 11.1107 6.6912 11.0781 6.63412C10.9434 6.39599 11.0135 6.20394 11.2042 6.02844C11.2852 5.95281 11.3559 5.94335 11.4236 6.02312C11.5278 6.14544 11.6375 6.26658 11.7173 6.40426C11.8178 6.56972 11.7868 6.64181 11.6082 6.7399C11.6661 6.98276 11.7465 7.22563 11.774 7.47381C11.802 7.69953 11.8069 7.94062 11.7606 8.16281C11.6911 8.48781 11.2274 8.73067 10.9026 8.65503C10.7118 8.60835 10.5973 8.48485 10.5241 8.31644C10.4931 8.24494 10.4681 8.16931 10.4309 8.07122C10.3876 8.12853 10.3535 8.16281 10.3267 8.2024C10.2725 8.27922 10.2383 8.37849 10.167 8.43522C9.98362 8.57881 10.0116 8.75844 10.0275 8.94694C10.0659 9.46222 10.1049 9.97631 10.1268 10.4916C10.136 10.7002 10.0817 10.9005 9.89404 11.0594C9.8587 10.6931 9.82457 10.3291 9.78496 9.96331C9.74535 9.59399 9.70026 9.22408 9.65516 8.84649C9.63262 8.84176 9.6119 8.83231 9.58691 8.83053C9.18046 8.79094 8.93854 8.58885 8.83068 8.20358C8.74415 7.89571 8.75695 7.58431 8.78924 7.27467C8.80204 7.14467 8.80691 7.01585 8.81727 6.88467C8.79229 6.88112 8.77157 6.87521 8.7478 6.87226C8.68809 7.08144 8.62532 7.29062 8.57291 7.50217C8.49491 7.80058 8.43337 8.10017 8.35537 8.39681C8.33109 8.46685 8.29208 8.53124 8.2408 8.5859C8.08541 8.78031 7.89346 8.77676 7.77829 8.5599C7.67597 8.3663 7.59587 8.1624 7.53941 7.95185C7.40475 7.50186 7.39613 7.0252 7.51443 6.5709C7.52784 6.51417 7.56135 6.45981 7.5839 6.40426C7.59791 6.40544 7.61376 6.40899 7.63021 6.40899C7.6363 6.47281 7.64423 6.54017 7.65093 6.60458C7.69054 6.96681 7.7204 7.33258 7.7789 7.6954C7.79779 7.82185 7.86909 7.94712 7.94282 8.05644C8.01899 8.17403 8.12624 8.16517 8.16951 8.03694C8.2341 7.83367 8.28529 7.62508 8.3121 7.41649C8.35598 7.03003 8.46201 6.66781 8.68077 6.34103C8.74293 6.2524 8.8191 6.16494 8.90868 6.10703C9.06285 6.00894 9.22373 6.08871 9.21763 6.26481C9.21005 6.44708 9.18289 6.62809 9.13659 6.8049C9.03482 7.17422 9.04457 7.53112 9.22373 7.87503C9.31391 8.03753 9.40715 8.09544 9.59971 8.11022C9.58813 7.95126 9.5857 7.79408 9.56498 7.63867C9.51074 7.18367 9.45102 6.72631 9.38826 6.27131C9.36853 6.14155 9.33982 6.01323 9.30234 5.88721C9.27309 5.76608 9.36754 5.50549 9.48149 5.45408C9.51501 5.43812 9.60032 5.46235 9.61738 5.49249C9.73377 5.71053 9.84955 5.93153 9.9434 6.16021C9.96498 6.21152 9.96837 6.26832 9.95304 6.32169C9.9377 6.37506 9.90452 6.42198 9.8587 6.45508C9.83188 6.47399 9.81604 6.52067 9.81787 6.55612C9.86296 7.0389 9.91293 7.52344 9.96046 8.00444C9.96168 8.0139 9.97143 8.01981 9.97874 8.0269C10.1823 7.90044 10.2999 7.63808 10.2572 7.42003C10.1957 7.1234 10.1311 6.82912 10.0781 6.53012C10.0397 6.32449 10.0951 6.13067 10.1865 5.90731ZM15.5704 6.02135C15.5655 6.06981 15.5631 6.1159 15.5539 6.16081C15.4863 6.51535 15.4723 6.87285 15.5496 7.22681C15.5826 7.37512 15.6599 7.52285 15.7422 7.65581C15.78 7.71608 15.8787 7.77753 15.9464 7.77399C16.0012 7.77103 16.0743 7.6824 16.1024 7.61622C16.259 7.2794 16.3949 6.93135 16.5612 6.59572C16.6642 6.38653 16.7946 6.18681 16.9317 5.99772C16.9817 5.93094 17.109 5.8429 17.1651 5.86417C17.2876 5.90612 17.3412 6.03258 17.3235 6.17203C17.3022 6.32862 17.2638 6.48522 17.2571 6.64181C17.2443 6.96385 17.2273 7.28708 17.2443 7.60853C17.2608 7.95422 17.5301 8.10017 17.8634 7.96131C18.3686 7.75212 18.4966 7.44603 18.4625 6.95322C18.4375 6.5774 18.3412 6.20158 18.2699 5.82812C18.2272 5.58467 18.3875 5.42631 18.4996 5.21594C18.6831 5.42335 18.7342 5.64672 18.7653 5.86831C18.8202 6.23585 18.8415 6.60753 18.8994 6.97626C18.9408 7.2469 19.0359 7.50512 19.2236 7.72081C19.3058 7.81594 19.4015 7.89276 19.5404 7.84903C19.6837 7.80708 19.7281 7.68949 19.7403 7.5589C19.7714 7.22326 19.6989 6.89826 19.5965 6.58094C19.5323 6.38264 19.4628 6.186 19.3881 5.99122C19.3467 5.88544 19.357 5.80331 19.4362 5.72058C19.4954 5.65912 19.5307 5.57876 19.5758 5.50726C19.655 5.37253 19.705 5.36071 19.8275 5.45231C20.0669 5.6349 20.2101 5.87835 20.2881 6.15667C20.3009 6.20276 20.2699 6.26481 20.2583 6.31681C20.2059 6.30676 20.1516 6.30262 20.1047 6.28253C20.0584 6.26422 20.0194 6.22994 19.9499 6.18444C20.0084 6.40426 20.0615 6.58981 20.1047 6.78126C20.1705 7.08676 20.2169 7.39699 20.1236 7.70662C20.1096 7.75922 20.0974 7.8124 20.0785 7.86499C19.8707 8.40508 19.4216 8.51499 18.9737 8.13562C18.8781 8.05408 18.7793 7.97726 18.6971 7.91108C18.5399 8.05408 18.3595 8.22603 18.1687 8.38381C18.0993 8.44467 18.0036 8.48012 17.9128 8.51499C17.5033 8.67335 17.1413 8.51853 16.9835 8.12144C16.8531 7.80176 16.8763 7.4679 16.8982 7.13522C16.9025 7.05958 16.8982 6.98158 16.8982 6.90476C16.8813 6.90014 16.8642 6.896 16.847 6.89235C16.8111 6.96208 16.769 7.03062 16.7416 7.10567C16.6264 7.40231 16.524 7.70367 16.4058 7.99972C16.237 8.42635 15.9793 8.45708 15.6825 8.10253C15.1657 7.47735 15.1889 6.79958 15.471 6.09758C15.4838 6.06803 15.5088 6.04026 15.5271 6.01308C15.5406 6.01958 15.5553 6.02321 15.5704 6.02372M21.8616 7.10862C21.8329 6.82853 21.8506 6.53072 21.758 6.27426C21.7208 6.17807 21.7042 6.07554 21.7092 5.97293C21.7143 5.87032 21.7408 5.76978 21.7872 5.67744C21.8177 5.61894 21.8853 5.54212 21.9396 5.53858C21.9938 5.53503 22.0791 5.6024 22.1041 5.65853C22.2583 6.01544 22.4069 6.37176 22.538 6.73753C22.6032 6.92249 22.5422 6.9869 22.3491 6.97153C22.3643 7.30422 22.3771 7.63512 22.4009 7.96485C22.4021 8.00976 22.4435 8.05349 22.4685 8.09781C22.9097 8.82285 23.3624 9.54258 23.7878 10.2765C23.9992 10.6375 24.1632 11.0264 24.2241 11.4459C24.2369 11.5298 24.2345 11.6184 24.2375 11.7053C24.2214 11.7141 24.205 11.7222 24.1881 11.7295C24.1504 11.6811 24.1041 11.6368 24.0791 11.5824C23.6738 10.6523 23.1175 9.80376 22.5636 8.95049C22.5355 8.91031 22.5069 8.87249 22.4526 8.79862C22.4807 9.12835 22.5069 9.41849 22.5306 9.70567C22.5849 10.3421 22.7135 10.9755 22.6349 11.6161C22.5959 11.9192 22.4996 12.2141 22.4185 12.5089C22.4021 12.5799 22.3448 12.6413 22.304 12.7051C22.282 12.6998 22.2576 12.6969 22.2375 12.6921C22.2375 12.6159 22.2223 12.5361 22.2406 12.4623C22.3923 11.8909 22.3381 11.3112 22.2698 10.735C22.1815 9.97158 22.073 9.21108 21.9853 8.44822C21.9505 8.15276 21.8823 7.8839 21.6818 7.64458C21.3875 7.28649 21.1297 6.90594 20.8457 6.54017C20.7616 6.43322 20.6428 6.35167 20.552 6.24944C20.4996 6.1939 20.4466 6.12003 20.4374 6.05149C20.4189 5.86869 20.4126 5.68493 20.4186 5.50135C20.4186 5.44994 20.449 5.37549 20.4874 5.35422C20.5276 5.33649 20.6111 5.3554 20.6501 5.38908C20.9499 5.65203 21.2461 5.91853 21.5343 6.19272C21.5843 6.23881 21.591 6.32922 21.6178 6.4019C21.538 6.41785 21.4606 6.43676 21.3692 6.45685C21.5179 6.66781 21.6733 6.89412 21.8335 7.11985C21.8427 7.11512 21.8506 7.1104 21.8616 7.10685M31.6176 6.57681C31.6487 6.94849 31.6804 7.33317 31.7139 7.71549C31.7804 8.47303 31.851 9.22703 31.9187 9.9834C31.9735 10.5118 31.9517 11.0451 31.8541 11.5676C31.7127 12.2903 31.3916 12.8966 30.6439 13.1903C30.4251 13.2765 30.1862 13.3214 29.9534 13.3794C29.8895 13.3929 29.8182 13.3805 29.7499 13.3805C29.7438 13.3628 29.7347 13.348 29.7292 13.3309C29.7968 13.2694 29.8584 13.2027 29.9303 13.1489C30.1746 12.9669 30.4281 12.8014 30.667 12.6147C31.2392 12.1621 31.5098 11.5688 31.4708 10.8633C31.4297 10.1355 31.3718 9.40867 31.2971 8.6834C31.224 7.94476 31.1314 7.20731 31.0424 6.46985C31.0192 6.27781 30.9863 6.08753 30.9571 5.89667C30.9333 5.7584 31.1125 5.4074 31.2429 5.36781C31.274 5.35953 31.3501 5.39794 31.3666 5.43399C31.525 5.75603 31.6749 6.07985 31.823 6.40662C31.8413 6.45685 31.8291 6.51771 31.8321 6.57681H31.6176Z" fill="white"/>
<path id="Vector_5" fill-rule="evenodd" clip-rule="evenodd" d="M22.4861 13.501C22.5684 13.4614 22.647 13.4071 22.7317 13.3846C23.299 13.2345 23.6975 12.8646 24.082 12.4652C24.433 12.1012 24.5305 11.6704 24.4915 11.1876C24.4458 10.5908 24.427 9.98984 24.3758 9.39302C24.3124 8.65084 24.2271 7.91398 24.146 7.17475C24.1176 6.91408 24.082 6.65419 24.0394 6.39534C24.0284 6.31696 24.0096 6.23978 23.9833 6.16489C23.9382 6.01952 23.9583 5.89425 24.0723 5.78316C24.1808 5.68566 24.2807 5.58166 24.4014 5.46112C24.4428 5.52671 24.4909 5.57516 24.5092 5.62952C24.6049 5.94093 24.7 6.25589 24.7859 6.57143C24.8316 6.73512 24.7901 6.76761 24.5903 6.73039C24.5903 6.89052 24.5787 7.04771 24.5915 7.20252C24.6829 8.4718 24.8834 9.73457 24.8675 11.0121C24.8608 11.4896 24.8547 11.9682 24.628 12.4073C24.4233 12.8026 24.115 13.1217 23.7499 13.3864C23.6516 13.4563 23.5379 13.5032 23.4178 13.5235C23.1704 13.5607 22.9206 13.5749 22.6713 13.592C22.6141 13.595 22.555 13.5696 22.4971 13.5589C22.4943 13.5395 22.4907 13.5201 22.4861 13.501ZM25.7341 6.85507C25.7627 7.1523 25.784 7.42293 25.8169 7.69534C25.9023 8.4328 25.9906 9.17143 26.0838 9.90771C26.1283 10.2652 26.1947 10.6221 26.2459 10.9796C26.3093 11.4334 26.2142 11.8583 25.9973 12.2572C25.9589 12.3281 25.887 12.3795 25.8303 12.4392C25.8127 12.4362 25.7956 12.4303 25.7792 12.4279C25.7639 12.3641 25.7292 12.2962 25.7432 12.2424C25.8748 11.7171 25.7871 11.1977 25.7152 10.6765C25.6122 9.96148 25.5275 9.24234 25.4233 8.52793C25.3136 7.78752 25.2027 7.04711 25.0753 6.30966C25.0211 5.98821 25.079 5.71284 25.2862 5.46052C25.4013 5.32048 25.5001 5.32816 25.5708 5.48948C25.639 5.64607 25.6823 5.80621 25.7493 5.9628C25.8425 6.18321 25.9528 6.39475 26.0455 6.61516C26.0802 6.69671 26.0832 6.79007 26.0997 6.87516C26.0132 6.8793 25.9248 6.88461 25.837 6.88461C25.8127 6.88402 25.7901 6.87221 25.7341 6.85507ZM13.1523 7.58543C13.2169 7.53284 13.2839 7.47493 13.3503 7.42293C13.6343 7.19721 13.9225 6.97621 14.2023 6.74339C14.3107 6.65121 14.3942 6.52948 14.4899 6.42607C14.2614 6.09575 14.2845 5.74239 14.5411 5.53025C14.6514 5.43925 14.7732 5.38784 14.9207 5.45284C15.0615 5.51962 15.1023 5.64075 15.0865 5.77725C15.073 5.90371 15.0322 6.02898 15.0091 6.1513C14.9926 6.23993 14.9975 6.33271 14.9731 6.4178C14.9501 6.47639 14.9134 6.52899 14.8659 6.57143C14.811 6.62402 14.7275 6.65475 14.6812 6.71148C14.3253 7.14934 13.8543 7.42471 13.3247 7.61852C13.2815 7.63389 13.2303 7.63212 13.1815 7.63802C13.1724 7.62148 13.1633 7.60316 13.1523 7.58543ZM14.7702 5.81862C14.744 5.81448 14.7178 5.80621 14.6928 5.80266C14.6763 5.88539 14.6568 5.9693 14.6416 6.05143L14.705 6.06266C14.7288 5.97993 14.747 5.90016 14.7702 5.81862ZM8.03111 11.2118C8.08413 11.421 8.08291 11.5965 8.03781 11.785C7.98358 12.0155 7.95859 12.2518 7.92569 12.4853C7.92081 12.5219 7.92569 12.568 7.9458 12.5993C7.98602 12.6625 8.02684 12.7453 8.08717 12.7707C8.12313 12.7848 8.20356 12.7021 8.25597 12.6584C8.28705 12.6318 8.30228 12.5833 8.33702 12.5692C8.36444 12.5591 8.42964 12.5715 8.43817 12.5934C8.52044 12.7683 8.36809 13.1447 8.18589 13.2286C7.9915 13.3184 7.78309 13.241 7.73617 13.0171C7.6862 12.7925 7.64964 12.5473 7.6862 12.3245C7.7447 11.9765 7.86536 11.6385 7.96286 11.2958C7.97078 11.2703 7.99881 11.252 8.03111 11.2118ZM27.2618 8.75484L26.8693 8.08593C26.65 8.19111 26.5988 8.16157 26.6097 7.94648C26.6134 7.89211 26.5945 7.83361 26.6079 7.78457C26.625 7.72961 26.6579 7.65457 26.7036 7.63684C26.7475 7.62325 26.8395 7.6593 26.8675 7.69948C26.9552 7.83184 27.0229 7.97602 27.0985 8.11666C27.1301 8.17516 27.1594 8.23957 27.2215 8.29571C27.2215 8.18698 27.2197 8.08239 27.2215 7.97307C27.2258 7.83775 27.2118 7.69475 27.249 7.56652C27.274 7.48261 27.3684 7.41171 27.4428 7.35202C27.4671 7.33075 27.5573 7.34139 27.5725 7.36443C27.6292 7.44657 27.681 7.53639 27.7036 7.62975C27.7237 7.70657 27.6822 7.77571 27.5823 7.72489C27.4373 7.65398 27.3903 7.72784 27.3861 7.84484C27.3769 8.06466 27.3812 8.28093 27.3721 8.49957C27.3708 8.57934 27.3428 8.65971 27.3258 8.74302C27.3044 8.74893 27.2819 8.7513 27.2618 8.75484ZM7.63867 10.384C7.85439 10.0501 8.14141 9.79307 8.48631 9.60043C8.70508 9.47811 8.94273 9.38652 9.17856 9.28902C9.24803 9.25889 9.34309 9.19271 9.39002 9.32625C9.43816 9.4598 9.39733 9.55966 9.27606 9.60693C9.12433 9.66425 8.96223 9.70148 8.81842 9.77357C8.45158 9.95498 8.09266 10.15 7.72947 10.3408C7.69961 10.3568 7.66975 10.3704 7.63867 10.384ZM21.8231 12.8741C21.572 13.0833 21.3405 13.3243 20.9822 13.3693C20.7482 13.4 20.6251 13.2582 20.6781 13.0342C20.697 12.9556 20.7128 12.8758 20.7354 12.7795C20.6171 12.7973 20.5257 12.8132 20.424 12.8309C20.4752 12.708 20.8304 12.4699 20.9395 12.4858C20.9755 12.4906 21.023 12.5644 21.0212 12.6017C21.0181 12.6903 20.9785 12.7766 20.9688 12.864C20.9608 12.9284 20.9767 12.9946 20.9797 13.0602C21.048 13.0549 21.1241 13.0602 21.1851 13.0401C21.3228 12.9905 21.4544 12.9219 21.5915 12.8682C21.6561 12.8422 21.7292 12.8309 21.7975 12.8126C21.8042 12.8333 21.8158 12.8552 21.8231 12.8741ZM28.6469 12.5331C28.6993 12.539 28.7523 12.5343 28.7992 12.5503C28.8906 12.5745 28.9351 12.6353 28.8949 12.7299C28.8778 12.7713 28.8547 12.8103 28.8321 12.8481C28.7809 12.9462 28.7596 13.02 28.9211 13.0159C28.9577 13.0159 29.0222 13.0442 29.0265 13.0714C29.0363 13.1116 29.0241 13.1784 28.9906 13.2038C28.8291 13.3291 28.6487 13.4224 28.4354 13.4159C28.3922 13.4148 28.3239 13.3811 28.3178 13.3486C28.305 13.306 28.3257 13.241 28.3556 13.2038C28.4068 13.1435 28.4811 13.0986 28.5354 13.0419C28.5957 12.9793 28.6036 12.9066 28.5226 12.8522C28.4415 12.7978 28.3245 12.75 28.3952 12.6401C28.4385 12.5745 28.5475 12.5473 28.6286 12.5018C28.6335 12.5118 28.642 12.5219 28.6469 12.5331ZM18.5751 9.39302C18.5922 9.37471 18.5849 9.38062 18.5782 9.3883C18.5306 9.47398 18.4807 9.59866 18.3655 9.55789C18.3169 9.53576 18.2733 9.50445 18.2373 9.46579C18.2013 9.42713 18.1736 9.38191 18.1559 9.33275C18.1175 9.19684 18.1327 9.04498 18.126 8.9008C18.1437 8.89902 18.1608 8.89548 18.179 8.89252C18.24 9.02784 18.3021 9.16552 18.3606 9.30143C18.3826 9.30025 18.4057 9.2973 18.4258 9.29611C18.4618 9.15193 18.4953 9.00539 18.5312 8.86121L18.5727 8.85707C18.6476 8.98116 18.722 9.10761 18.7963 9.23584C18.8183 9.23466 18.8359 9.22993 18.8554 9.22875L18.9267 8.69752C19.0529 8.85234 19.0736 8.99357 19.0754 9.14307C19.0754 9.2648 19.0443 9.38948 18.9182 9.42434C18.8286 9.44975 18.7165 9.4078 18.5751 9.39302ZM26.7542 9.99575C26.7919 9.93548 26.8169 9.86043 26.8705 9.81316C27.032 9.67725 27.2051 9.55316 27.3702 9.42257C27.5518 9.27602 27.7267 9.12593 27.9114 8.98116C27.9461 8.95398 28.0095 8.92089 28.0393 8.93389C28.0753 8.94984 28.0936 9.01366 28.1027 9.0568C28.1271 9.18148 28.0899 9.27602 27.9723 9.34575C27.6256 9.55493 27.2843 9.77298 26.9382 9.98334C26.8968 10.0076 26.8504 10.0212 26.8023 10.0407C26.7871 10.0248 26.7711 10.0098 26.7542 9.99575ZM30.5664 7.35675C30.5512 7.25157 30.5493 7.14461 30.5201 7.0418C30.4549 6.8013 30.394 6.55489 30.294 6.32739C30.2343 6.18439 30.2313 6.07448 30.3202 5.95689C30.4049 5.8458 30.4671 5.84166 30.5164 5.96516C30.5969 6.16843 30.6785 6.37407 30.706 6.58502C30.7358 6.79302 30.6999 7.00634 30.6858 7.21671C30.6828 7.26634 30.6444 7.31243 30.6237 7.35971C30.6047 7.35787 30.5855 7.35688 30.5664 7.35675ZM23.2173 6.77293C23.2173 6.67484 23.2039 6.60157 23.221 6.53539C23.2856 6.27952 23.196 6.0798 23.0132 5.90489C22.873 5.76839 22.8688 5.6183 23.0156 5.4948C23.0516 5.46584 23.1491 5.45698 23.1826 5.48357C23.4843 5.71521 23.5476 6.4503 23.2996 6.73512C23.2905 6.74575 23.2746 6.74693 23.2173 6.77293ZM14.8189 7.81766C14.8677 8.04693 14.6252 8.35184 14.3595 8.36602C14.2041 8.37371 14.0499 8.22302 14.0487 8.04102C14.0426 7.7503 14.2132 7.54052 14.4204 7.35616C14.432 7.34552 14.4582 7.35202 14.5185 7.34552C14.4612 7.45957 14.4113 7.5488 14.3747 7.63743C14.3369 7.72371 14.2967 7.81175 14.2857 7.90216C14.2778 7.95357 14.3119 8.04634 14.3522 8.06289C14.4046 8.08357 14.4929 8.0688 14.5459 8.03748C14.6398 7.98252 14.7178 7.90275 14.8189 7.81766Z" fill="white"/>
<path id="Vector_6" fill-rule="evenodd" clip-rule="evenodd" d="M23.5653 7.48447C23.614 7.36097 23.6664 7.23747 23.7206 7.10629C23.8248 7.22742 23.8443 7.56365 23.7627 7.66351C23.6975 7.7427 23.6116 7.75038 23.5305 7.68892C23.4391 7.6192 23.3678 7.61801 23.2734 7.6901C23.1612 7.77874 23.0838 7.75629 23.0479 7.62451C23.0186 7.51815 23.0229 7.40647 23.0138 7.29951C23.032 7.29301 23.0528 7.28829 23.0698 7.28297C23.1168 7.35801 23.1612 7.43365 23.2252 7.54001C23.2782 7.40765 23.3148 7.3072 23.3696 7.16833C23.4269 7.30011 23.4696 7.38815 23.5104 7.48033C23.5281 7.48033 23.5464 7.48329 23.5653 7.48447ZM13.7726 11.6332C13.7976 11.4252 13.8207 11.2403 13.8415 11.0553C13.5581 11.0181 13.4947 10.9271 13.5959 10.7268C13.6251 10.6701 13.7074 10.5856 13.7525 10.5944C13.8366 10.608 13.9444 10.6588 13.9834 10.7286C14.1059 10.9419 14.0151 11.4187 13.8408 11.5984C13.8329 11.609 13.814 11.612 13.7726 11.6332ZM10.4686 5.35365C10.4862 5.46592 10.4893 5.54156 10.5124 5.6107C10.5277 5.66211 10.5709 5.70406 10.599 5.75192C10.6447 5.72356 10.7007 5.70406 10.7324 5.66742C10.7806 5.60006 10.8129 5.52324 10.886 5.44938C10.8939 5.51024 10.8939 5.57288 10.914 5.62547C10.939 5.68101 10.9865 5.72651 11.0225 5.77615C11.0578 5.7336 11.0974 5.6952 11.1297 5.6497C11.148 5.62429 11.1559 5.59297 11.1742 5.55811C11.2723 5.68633 11.262 5.84351 11.1535 5.93392C11.0182 6.0456 10.9341 5.94101 10.8525 5.85474C10.6288 5.99301 10.5399 5.99833 10.4332 5.88133C10.3101 5.74247 10.3083 5.54156 10.4686 5.35365ZM27.9058 10.79C27.8973 10.715 27.8808 10.6701 27.8894 10.6322C27.9595 10.4059 27.8656 10.2511 27.681 10.1235C27.5463 10.0325 27.5463 9.92197 27.6834 9.83038C27.7267 9.80201 27.8169 9.79138 27.8601 9.81561C28.1386 9.9722 28.2178 10.481 28.0082 10.7126C27.9905 10.7333 27.9643 10.7481 27.9058 10.79ZM17.8359 6.81674C17.8359 6.74997 17.8329 6.68379 17.8359 6.6176C17.8548 6.32451 17.7975 6.05092 17.6263 5.80097C17.597 5.7602 17.572 5.68811 17.5891 5.6497C17.6199 5.59097 17.6707 5.5444 17.7329 5.51792C17.761 5.50965 17.8383 5.57583 17.8603 5.62133C17.9925 5.89374 18.0187 6.1827 17.984 6.47579C17.9712 6.59456 17.9352 6.71038 17.909 6.82797C17.8847 6.82561 17.8597 6.8197 17.8359 6.81674ZM8.287 6.28847C8.2998 6.03851 8.43264 5.83347 8.33027 5.6101C8.29187 5.62488 8.26994 5.63906 8.24495 5.64556C8.18706 5.65383 8.12552 5.65856 8.06641 5.66447C8.07981 5.60361 8.07433 5.52738 8.1115 5.48365C8.18706 5.39679 8.26628 5.27151 8.41131 5.32883C8.54294 5.3826 8.54903 5.51556 8.5405 5.6367C8.52831 5.86597 8.43264 6.06215 8.287 6.28847Z" fill="white"/>
</g>
</g>
<defs>
<clipPath id="clip0_210_1860">
<rect width="39" height="26" fill="white"/>
</clipPath>
</defs>
</svg>
