<svg width="24" height="24" viewBox="0 0 24 24" fill="none" xmlns="http://www.w3.org/2000/svg">
<g id="basil:settings-adjust-outline">
<path id="Vector" fill-rule="evenodd" clip-rule="evenodd" d="M13.354 8.74997H4C3.80109 8.74997 3.61032 8.67096 3.46967 8.5303C3.32902 8.38965 3.25 8.19889 3.25 7.99997C3.25 7.80106 3.32902 7.6103 3.46967 7.46964C3.61032 7.32899 3.80109 7.24997 4 7.24997H13.354C13.5174 6.67405 13.8643 6.16716 14.3419 5.80623C14.8195 5.44529 15.4018 5.25 16.0005 5.25C16.5992 5.25 17.1815 5.44529 17.6591 5.80623C18.1367 6.16716 18.4836 6.67405 18.647 7.24997H20C20.1989 7.24997 20.3897 7.32899 20.5303 7.46964C20.671 7.6103 20.75 7.80106 20.75 7.99997C20.75 8.19889 20.671 8.38965 20.5303 8.5303C20.3897 8.67096 20.1989 8.74997 20 8.74997H18.646C18.4823 9.32549 18.1354 9.83192 17.6579 10.1925C17.1804 10.5531 16.5983 10.7482 16 10.7482C15.4017 10.7482 14.8196 10.5531 14.3421 10.1925C13.8646 9.83192 13.5177 9.32549 13.354 8.74997ZM14.75 7.99997C14.75 7.66845 14.8817 7.35051 15.1161 7.11609C15.3505 6.88167 15.6685 6.74997 16 6.74997C16.3315 6.74997 16.6495 6.88167 16.8839 7.11609C17.1183 7.35051 17.25 7.66845 17.25 7.99997C17.25 8.3315 17.1183 8.64944 16.8839 8.88386C16.6495 9.11828 16.3315 9.24997 16 9.24997C15.6685 9.24997 15.3505 9.11828 15.1161 8.88386C14.8817 8.64944 14.75 8.3315 14.75 7.99997ZM10.647 16.75H20C20.1989 16.75 20.3897 16.671 20.5303 16.5303C20.671 16.3897 20.75 16.1989 20.75 16C20.75 15.8011 20.671 15.6103 20.5303 15.4696C20.3897 15.329 20.1989 15.25 20 15.25H10.647C10.4836 14.6741 10.1367 14.1672 9.6591 13.8062C9.18148 13.4453 8.59916 13.25 8.0005 13.25C7.40184 13.25 6.81952 13.4453 6.3419 13.8062C5.86428 14.1672 5.51744 14.6741 5.354 15.25H4C3.80109 15.25 3.61032 15.329 3.46967 15.4696C3.32902 15.6103 3.25 15.8011 3.25 16C3.25 16.1989 3.32902 16.3897 3.46967 16.5303C3.61032 16.671 3.80109 16.75 4 16.75H5.354C5.51773 17.3255 5.86464 17.8319 6.34213 18.1925C6.81962 18.5531 7.40165 18.7482 8 18.7482C8.59835 18.7482 9.18038 18.5531 9.65787 18.1925C10.1354 17.8319 10.4823 17.3255 10.646 16.75M6.75 16C6.75 15.6685 6.8817 15.3505 7.11612 15.1161C7.35054 14.8817 7.66848 14.75 8 14.75C8.33152 14.75 8.64946 14.8817 8.88388 15.1161C9.1183 15.3505 9.25 15.6685 9.25 16C9.25 16.3315 9.1183 16.6494 8.88388 16.8839C8.64946 17.1183 8.33152 17.25 8 17.25C7.66848 17.25 7.35054 17.1183 7.11612 16.8839C6.8817 16.6494 6.75 16.3315 6.75 16Z" fill="white"/>
</g>
</svg>
