<svg width="25" height="24" viewBox="0 0 25 24" fill="none" xmlns="http://www.w3.org/2000/svg">
<g id="fluent:brightness-low-48-regular">
<path id="Vector" d="M12.5 3.5C12.845 3.5 13.125 3.78 13.125 4.125V5.375C13.125 5.54076 13.0592 5.69973 12.9419 5.81694C12.8247 5.93415 12.6658 6 12.5 6C12.3342 6 12.1753 5.93415 12.0581 5.81694C11.9408 5.69973 11.875 5.54076 11.875 5.375V4.125C11.875 3.78 12.155 3.5 12.5 3.5ZM12.523 17.011C15.278 17.011 17.5105 14.778 17.5105 12.023C17.5105 9.2685 15.2775 7.0355 12.523 7.0355C9.768 7.0355 7.5355 9.2685 7.5355 12.023C7.5355 14.778 9.7685 17.011 12.523 17.011ZM12.523 15.761C11.5317 15.761 10.581 15.3672 9.88001 14.6662C9.17905 13.9653 8.78525 13.0146 8.78525 12.0232C8.78525 11.0319 9.17905 10.0812 9.88001 9.38026C10.581 8.6793 11.5317 8.2855 12.523 8.2855C13.5142 8.2855 14.4649 8.67927 15.1658 9.38019C15.8667 10.0811 16.2605 11.0318 16.2605 12.023C16.2605 13.0142 15.8667 13.9649 15.1658 14.6658C14.4649 15.3667 13.5142 15.761 12.523 15.761ZM20.375 12.625C20.5408 12.625 20.6997 12.5592 20.8169 12.4419C20.9342 12.3247 21 12.1658 21 12C21 11.8342 20.9342 11.6753 20.8169 11.5581C20.6997 11.4408 20.5408 11.375 20.375 11.375H19.125C18.9592 11.375 18.8003 11.4408 18.6831 11.5581C18.5658 11.6753 18.5 11.8342 18.5 12C18.5 12.1658 18.5658 12.3247 18.6831 12.4419C18.8003 12.5592 18.9592 12.625 19.125 12.625H20.375ZM12.5 18C12.845 18 13.125 18.28 13.125 18.625V19.875C13.125 20.0408 13.0592 20.1997 12.9419 20.3169C12.8247 20.4342 12.6658 20.5 12.5 20.5C12.3342 20.5 12.1753 20.4342 12.0581 20.3169C11.9408 20.1997 11.875 20.0408 11.875 19.875V18.625C11.875 18.28 12.155 18 12.5 18ZM5.875 12.625C6.04076 12.625 6.19973 12.5592 6.31694 12.4419C6.43415 12.3247 6.5 12.1658 6.5 12C6.5 11.8342 6.43415 11.6753 6.31694 11.5581C6.19973 11.4408 6.04076 11.375 5.875 11.375H4.625C4.45924 11.375 4.30027 11.4408 4.18306 11.5581C4.06585 11.6753 4 11.8342 4 12C4 12.1658 4.06585 12.3247 4.18306 12.4419C4.30027 12.5592 4.45924 12.625 4.625 12.625H5.875ZM6.6835 6.183C6.80069 6.06591 6.95958 6.00013 7.12525 6.00013C7.29092 6.00013 7.44981 6.06591 7.567 6.183L8.317 6.933C8.37671 6.99064 8.42434 7.05959 8.45712 7.13583C8.4899 7.21208 8.50716 7.29408 8.50791 7.37707C8.50865 7.46006 8.49286 7.54236 8.46146 7.61918C8.43005 7.696 8.38366 7.76579 8.325 7.82449C8.26633 7.88319 8.19656 7.92962 8.11976 7.96107C8.04296 7.99252 7.96066 8.00835 7.87768 8.00766C7.79469 8.00696 7.71267 7.98974 7.63641 7.95701C7.56015 7.92427 7.49117 7.87668 7.4335 7.817L6.6835 7.067C6.62545 7.00896 6.57939 6.94005 6.54797 6.86422C6.51656 6.78838 6.50038 6.70709 6.50038 6.625C6.50038 6.54291 6.51656 6.46162 6.54797 6.38578C6.57939 6.30995 6.62545 6.24104 6.6835 6.183ZM7.567 17.817C7.44909 17.9308 7.2912 17.9938 7.12732 17.9923C6.96345 17.9908 6.80671 17.9251 6.69086 17.8091C6.57502 17.6932 6.50933 17.5364 6.50795 17.3726C6.50658 17.2087 6.56962 17.0508 6.6835 16.933L7.4335 16.183C7.55141 16.0692 7.7093 16.0062 7.87318 16.0077C8.03705 16.0092 8.19379 16.0749 8.30964 16.1909C8.42548 16.3068 8.49117 16.4636 8.49255 16.6274C8.49392 16.7913 8.43088 16.9492 8.317 17.067L7.567 17.817ZM18.317 6.183C18.1998 6.06591 18.0409 6.00013 17.8752 6.00013C17.7096 6.00013 17.5507 6.06591 17.4335 6.183L16.6835 6.933C16.6238 6.99064 16.5762 7.05959 16.5434 7.13583C16.5106 7.21208 16.4933 7.29408 16.4926 7.37707C16.4918 7.46006 16.5076 7.54236 16.539 7.61918C16.5704 7.696 16.6168 7.76579 16.6755 7.82449C16.7342 7.88319 16.8039 7.92962 16.8807 7.96107C16.9575 7.99252 17.0398 8.00835 17.1228 8.00766C17.2058 8.00696 17.2878 7.98974 17.3641 7.95701C17.4403 7.92427 17.5093 7.87668 17.567 7.817L18.317 7.067C18.3751 7.00896 18.4211 6.94005 18.4525 6.86422C18.4839 6.78838 18.5001 6.70709 18.5001 6.625C18.5001 6.54291 18.4839 6.46162 18.4525 6.38578C18.4211 6.30995 18.3751 6.24104 18.317 6.183ZM17.4335 17.817C17.5514 17.9308 17.7093 17.9938 17.8732 17.9923C18.037 17.9908 18.1938 17.9251 18.3096 17.8091C18.4255 17.6932 18.4912 17.5364 18.4925 17.3726C18.4939 17.2087 18.4309 17.0508 18.317 16.933L17.567 16.183C17.4491 16.0692 17.2912 16.0062 17.1273 16.0077C16.9635 16.0092 16.8067 16.0749 16.6909 16.1909C16.575 16.3068 16.5093 16.4636 16.508 16.6274C16.5066 16.7913 16.5696 16.9492 16.6835 17.067L17.4335 17.817Z" fill="white"/>
</g>
</svg>
