<svg width="24" height="24" viewBox="0 0 24 24" fill="none" xmlns="http://www.w3.org/2000/svg">
<g id="streamline:delete-1-solid">
<path id="Vector" fill-rule="evenodd" clip-rule="evenodd" d="M6.71929 5.28071C6.53069 5.09855 6.27808 4.99776 6.01589 5.00004C5.75369 5.00232 5.50288 5.10749 5.31747 5.29289C5.13206 5.4783 5.02689 5.72911 5.02461 5.99131C5.02234 6.25351 5.12313 6.50611 5.30529 6.69471L10.5983 11.9877L5.30529 17.2807C5.20978 17.373 5.1336 17.4833 5.08119 17.6053C5.02878 17.7273 5.00119 17.8585 5.00004 17.9913C4.99888 18.1241 5.02419 18.2558 5.07447 18.3787C5.12475 18.5016 5.199 18.6132 5.29289 18.7071C5.38679 18.801 5.49844 18.8753 5.62133 18.9255C5.74423 18.9758 5.87591 19.0011 6.00869 19C6.14147 18.9988 6.27269 18.9712 6.39469 18.9188C6.5167 18.8664 6.62704 18.7902 6.71929 18.6947L12.0123 13.4017L17.3053 18.6947C17.4939 18.8769 17.7465 18.9777 18.0087 18.9754C18.2709 18.9731 18.5217 18.8679 18.7071 18.6825C18.8925 18.4971 18.9977 18.2463 19 17.9841C19.0022 17.7219 18.9014 17.4693 18.7193 17.2807L13.4263 11.9877L18.7193 6.69471C18.9014 6.50611 19.0022 6.25351 19 5.99131C18.9977 5.72911 18.8925 5.4783 18.7071 5.29289C18.5217 5.10749 18.2709 5.00232 18.0087 5.00004C17.7465 4.99776 17.4939 5.09855 17.3053 5.28071L12.0123 10.5737L6.71929 5.28071Z" fill="white"/>
</g>
</svg>
