<svg width="25" height="24" viewBox="0 0 25 24" fill="none" xmlns="http://www.w3.org/2000/svg">
<g id="tabler:brightness-filled">
<path id="Vector" d="M17.5 3.34001C19.0202 4.2177 20.2826 5.48009 21.1603 7.0003C22.038 8.5205 22.5 10.245 22.5 12.0003C22.5 13.7557 22.0379 15.4802 21.1602 17.0003C20.2825 18.5205 19.0201 19.7829 17.4999 20.6606C15.9797 21.5383 14.2552 22.0003 12.4998 22.0003C10.7445 22.0002 9.02002 21.5381 7.49984 20.6604C5.97965 19.7827 4.71729 18.5203 3.83963 17.0001C2.96198 15.4799 2.49996 13.7554 2.5 12L2.505 11.676C2.561 9.94901 3.06355 8.26598 3.96364 6.79101C4.86373 5.31604 6.13065 4.09947 7.64089 3.2599C9.15113 2.42033 10.8531 1.98641 12.581 2.00045C14.3089 2.01449 16.0036 2.47601 17.5 3.34001ZM8.5 5.07201C6.97489 5.95264 5.78298 7.3119 5.10914 8.93898C4.43529 10.5661 4.31716 12.37 4.77308 14.0711C5.229 15.7721 6.23348 17.2752 7.63073 18.3472C9.02798 19.4192 10.7399 20.0002 12.501 20L12.5 4.00001C11.0957 4.00008 9.71613 4.3698 8.5 5.07201Z" fill="white"/>
</g>
</svg>
