<svg width="24" height="24" viewBox="0 0 24 24" fill="none" xmlns="http://www.w3.org/2000/svg">
<g id="ph:crop">
<path id="Vector" d="M22.5 18C22.5 18.1989 22.421 18.3897 22.2803 18.5303C22.1397 18.671 21.9489 18.75 21.75 18.75H18.75V21.75C18.75 21.9489 18.671 22.1397 18.5303 22.2803C18.3897 22.421 18.1989 22.5 18 22.5C17.8011 22.5 17.6103 22.421 17.4697 22.2803C17.329 22.1397 17.25 21.9489 17.25 21.75V18.75H6C5.80109 18.75 5.61032 18.671 5.46967 18.5303C5.32902 18.3897 5.25 18.1989 5.25 18V6.75H2.25C2.05109 6.75 1.86032 6.67098 1.71967 6.53033C1.57902 6.38968 1.5 6.19891 1.5 6C1.5 5.80109 1.57902 5.61032 1.71967 5.46967C1.86032 5.32902 2.05109 5.25 2.25 5.25H5.25V2.25C5.25 2.05109 5.32902 1.86032 5.46967 1.71967C5.61032 1.57902 5.80109 1.5 6 1.5C6.19891 1.5 6.38968 1.57902 6.53033 1.71967C6.67098 1.86032 6.75 2.05109 6.75 2.25V17.25H21.75C21.9489 17.25 22.1397 17.329 22.2803 17.4697C22.421 17.6103 22.5 17.8011 22.5 18ZM9 6.75H17.25V15C17.25 15.1989 17.329 15.3897 17.4697 15.5303C17.6103 15.671 17.8011 15.75 18 15.75C18.1989 15.75 18.3897 15.671 18.5303 15.5303C18.671 15.3897 18.75 15.1989 18.75 15V6C18.75 5.80109 18.671 5.61032 18.5303 5.46967C18.3897 5.32902 18.1989 5.25 18 5.25H9C8.80109 5.25 8.61032 5.32902 8.46967 5.46967C8.32902 5.61032 8.25 5.80109 8.25 6C8.25 6.19891 8.32902 6.38968 8.46967 6.53033C8.61032 6.67098 8.80109 6.75 9 6.75Z" fill="white"/>
</g>
</svg>
