<svg width="24" height="24" viewBox="0 0 24 24" fill="none" xmlns="http://www.w3.org/2000/svg">
<g id="ic:outline-crop-rotate" clip-path="url(#clip0_1106_1585)">
<path id="Vector" d="M7.47 21.49C4.2 19.93 1.86 16.76 1.5 13H0C0.51 19.16 5.66 24 11.95 24C12.18 24 12.39 23.98 12.61 23.97L8.8 20.15L7.47 21.49ZM12.05 0C11.82 0 11.61 0.02 11.39 0.04L15.2 3.85L16.53 2.52C19.8 4.07 22.14 7.24 22.5 11H24C23.49 4.84 18.34 0 12.05 0ZM16 14H18V8C18 7.46957 17.7893 6.96086 17.4142 6.58579C17.0391 6.21071 16.5304 6 16 6H10V8H16V14ZM8 16V4H6V6H4V8H6V16C6 16.5304 6.21071 17.0391 6.58579 17.4142C6.96086 17.7893 7.46957 18 8 18H16V20H18V18H20V16H8Z" fill="white"/>
</g>
<defs>
<clipPath id="clip0_1106_1585">
<rect width="24" height="24" fill="white"/>
</clipPath>
</defs>
</svg>
