<svg width="32" height="32" viewBox="0 0 32 32" fill="none" xmlns="http://www.w3.org/2000/svg">
    <g id="material-symbols-light:inbox-customize">
    <path id="Vector" d="M22.3917 25.64L22.249 24.488C21.7601 24.3769 21.3477 24.2302 21.0117 24.048C20.6757 23.8658 20.3512 23.6004 20.0383 23.252L18.9517 23.6973L18.233 22.6107L19.177 21.8413C19.0126 21.3862 18.9303 20.9347 18.9303 20.4867C18.9303 20.0387 19.0126 19.5791 19.177 19.108L18.233 18.3133L18.9517 17.2253L20.0383 17.672C20.3343 17.3404 20.6632 17.0791 21.025 16.888C21.3868 16.6969 21.7948 16.5462 22.249 16.436L22.3917 15.2827H23.725L23.869 16.436C24.3232 16.5302 24.7268 16.6769 25.0797 16.876C25.4335 17.0751 25.7668 17.3404 26.0797 17.672L27.1663 17.2253L27.885 18.312L26.941 19.108C27.1215 19.5969 27.2077 20.0609 27.1997 20.5C27.1917 20.9391 27.097 21.3862 26.9157 21.8413L27.8837 22.6107L27.1663 23.6973L26.0797 23.252C25.7668 23.5836 25.4423 23.8444 25.1063 24.0347C24.7703 24.2258 24.3579 24.3769 23.869 24.488L23.725 25.6413L22.3917 25.64ZM7.48767 25.3333C6.87345 25.3333 6.36101 25.128 5.95034 24.7173C5.53967 24.3067 5.3339 23.7938 5.33301 23.1787V6.15467C5.33301 5.54044 5.53879 5.028 5.95034 4.61733C6.3619 4.20667 6.87434 4.00089 7.48767 4H24.513C25.1263 4 25.6388 4.20578 26.0503 4.61733C26.4619 5.02889 26.6672 5.54133 26.6663 6.15467V13.636C26.4495 13.5044 26.2343 13.3947 26.021 13.3067C25.8068 13.2178 25.5775 13.1404 25.333 13.0747V6.15467C25.333 5.91467 25.2561 5.71778 25.1023 5.564C24.9486 5.41022 24.7521 5.33333 24.513 5.33333H7.48634C7.24723 5.33333 7.05079 5.41022 6.89701 5.564C6.74323 5.71778 6.66634 5.91467 6.66634 6.15467V18.1547H12.2663C12.4832 18.7884 12.8255 19.3231 13.293 19.7587C13.7588 20.1942 14.3063 20.5009 14.9357 20.6787C15.0095 21.5542 15.2126 22.3889 15.545 23.1827C15.8775 23.9764 16.3477 24.6933 16.9557 25.3333H7.48767ZM23.0583 23.3333C23.8432 23.3333 24.5183 23.0507 25.0837 22.4853C25.6481 21.9209 25.9303 21.2462 25.9303 20.4613C25.9303 19.6764 25.6477 19.0018 25.0823 18.4373C24.517 17.8729 23.8423 17.5902 23.0583 17.5893C22.2743 17.5884 21.5997 17.8711 21.0343 18.4373C20.469 19.0036 20.1863 19.6782 20.1863 20.4613C20.1863 21.2462 20.469 21.9209 21.0343 22.4853C21.5997 23.0507 22.2743 23.3333 23.0583 23.3333Z" fill="white"/>
</g>
    </svg>