<svg width="50" height="50" viewBox="0 0 50 50" fill="none" xmlns="http://www.w3.org/2000/svg">
<g id="Camera flip">
<circle id="Ellipse 45" cx="25" cy="25" r="25" fill="black" fill-opacity="0.35"/>
<g id="flip">
<path id="Ellipse 46" d="M37.0425 30.063C36.2286 32.6237 34.2996 34.806 31.6366 36.1787C28.9737 37.5513 25.7705 38.0145 22.66 37.4766C19.5496 36.9387 16.7581 35.439 14.8373 33.2737C12.9164 31.1084 12.0059 28.4351 12.2857 25.782L13.6652 25.9184C13.4161 28.2803 14.2267 30.6601 15.9367 32.5877C17.6467 34.5153 20.1317 35.8505 22.9007 36.3293C25.6697 36.8081 28.5212 36.3958 30.8919 35.1738C33.2625 33.9519 34.9798 32.0091 35.7043 29.7295L37.0425 30.063Z" fill="white"/>
<path id="Polygon 1" d="M13.2781 22.0206L15.6084 26.1147L10.306 25.6754L13.2781 22.0206Z" fill="white"/>
</g>
<g id="flip_2">
<path id="Ellipse 46_2" d="M12.6207 19.937C13.4346 17.3763 15.3636 15.194 18.0266 13.8213C20.6895 12.4487 23.8927 11.9855 27.0031 12.5234C30.1136 13.0613 32.905 14.561 34.8258 16.7263C36.7466 18.8916 37.6572 21.5649 37.3774 24.218L35.9979 24.0816C36.2469 21.7197 35.4364 19.3399 33.7264 17.4123C32.0164 15.4847 29.5314 14.1495 26.7625 13.6707C23.9935 13.1919 21.1419 13.6042 18.7713 14.8262C16.4007 16.0481 14.6834 17.9909 13.9589 20.2705L12.6207 19.937Z" fill="white"/>
<path id="Polygon 1_2" d="M36.385 27.9794L34.0547 23.8853L39.3571 24.3246L36.385 27.9794Z" fill="white"/>
</g>
</g>
</svg>
