<svg width="25" height="24" viewBox="0 0 25 24" fill="none" xmlns="http://www.w3.org/2000/svg">
<g id="mdi:horizontal-rotate-clockwise">
<path id="Vector" d="M12.5 14L8.5 10L4.5 14H7.6C8.06 18.56 10.08 22 12.5 22C14.92 22 16.94 18.56 17.4 14H15.41C15.07 17.45 13.9 20 12.5 20C11.1 20 9.93 17.45 9.59 14H12.5ZM12.5 4C13.9 4 15.07 6.55 15.41 10H17.4C16.94 5.44 14.92 2 12.5 2C10.34 2 8.5 4.74 7.8 8.58L8.5 7.88L9.71 9.08C10.14 6.11 11.23 4 12.5 4ZM22.5 13V11H11.5L13.5 13H22.5ZM2.5 13H3.5L5.5 11H2.5V13Z" fill="white"/>
</g>
</svg>
