<svg width="25" height="24" viewBox="0 0 25 24" fill="none" xmlns="http://www.w3.org/2000/svg">
<g id="mdi:horizontal-rotate-clockwise">
<path id="Vector" d="M10.5 12L14.5 8L10.5 4L10.5 7.1C5.94 7.56 2.5 9.58 2.5 12C2.5 14.42 5.94 16.44 10.5 16.9L10.5 14.91C7.05 14.57 4.5 13.4 4.5 12C4.5 10.6 7.05 9.43 10.5 9.09L10.5 12ZM20.5 12C20.5 13.4 17.95 14.57 14.5 14.91L14.5 16.9C19.06 16.44 22.5 14.42 22.5 12C22.5 9.84 19.76 8 15.92 7.3L16.62 8L15.42 9.21C18.39 9.64 20.5 10.73 20.5 12ZM11.5 22L13.5 22L13.5 11L11.5 13L11.5 22ZM11.5 2L11.5 3L13.5 5L13.5 2L11.5 2Z" fill="white"/>
</g>
</svg>
