<svg width="24" height="24" viewBox="0 0 24 24" fill="none" xmlns="http://www.w3.org/2000/svg">
<g id="heroicons:no-symbol-20-solid">
<path id="Vector" fill-rule="evenodd" clip-rule="evenodd" d="M7.15864 5.88483L18.1158 16.842C19.3033 15.3424 19.8984 13.4587 19.7879 11.5491C19.6773 9.6394 18.8689 7.83694 17.5163 6.48435C16.1637 5.13175 14.3613 4.32335 12.4516 4.21281C10.542 4.10228 8.65825 4.69733 7.15864 5.88483ZM16.8426 18.1152L5.88544 7.15803C4.69794 8.65764 4.10289 10.5413 4.21342 12.451C4.32396 14.3607 5.13236 16.1631 6.48496 17.5157C7.83755 18.8683 9.64001 19.6767 11.5497 19.7872C13.4593 19.8978 15.343 19.3027 16.8426 18.1152ZM5.21224 5.21163C6.1037 4.32016 7.16203 3.61301 8.32678 3.13056C9.49154 2.6481 10.7399 2.39978 12.0006 2.39978C13.2614 2.39978 14.5097 2.6481 15.6745 3.13056C16.8392 3.61301 17.8976 4.32016 18.789 5.21163C19.6805 6.10309 20.3877 7.16142 20.8701 8.32617C21.3526 9.49093 21.6009 10.7393 21.6009 12C21.6009 13.2608 21.3526 14.5091 20.8701 15.6739C20.3877 16.8386 19.6805 17.897 18.789 18.7884C16.9886 20.5888 14.5468 21.6003 12.0006 21.6003C9.45449 21.6003 7.01263 20.5888 5.21224 18.7884C3.41184 16.988 2.40039 14.5462 2.40039 12C2.40039 9.45388 3.41184 7.01202 5.21224 5.21163Z" fill="white"/>
</g>
</svg>
