<svg width="24" height="24" viewBox="0 0 24 24" fill="none" xmlns="http://www.w3.org/2000/svg">
<g id="ph:resize">
<path id="Vector" d="M12.75 10.5H4.5C4.30109 10.5 4.11032 10.579 3.96967 10.7197C3.82902 10.8603 3.75 11.0511 3.75 11.25V19.5C3.75 19.6989 3.82902 19.8897 3.96967 20.0303C4.11032 20.171 4.30109 20.25 4.5 20.25H12.75C12.9489 20.25 13.1397 20.171 13.2803 20.0303C13.421 19.8897 13.5 19.6989 13.5 19.5V11.25C13.5 11.0511 13.421 10.8603 13.2803 10.7197C13.1397 10.579 12.9489 10.5 12.75 10.5ZM12 18.75H5.25V12H12V18.75ZM20.25 17.25V18.75C20.25 19.1478 20.092 19.5294 19.8107 19.8107C19.5294 20.092 19.1478 20.25 18.75 20.25H16.5C16.3011 20.25 16.1103 20.171 15.9697 20.0303C15.829 19.8897 15.75 19.6989 15.75 19.5C15.75 19.3011 15.829 19.1103 15.9697 18.9697C16.1103 18.829 16.3011 18.75 16.5 18.75H18.75V17.25C18.75 17.0511 18.829 16.8603 18.9697 16.7197C19.1103 16.579 19.3011 16.5 19.5 16.5C19.6989 16.5 19.8897 16.579 20.0303 16.7197C20.171 16.8603 20.25 17.0511 20.25 17.25ZM20.25 10.5V13.5C20.25 13.6989 20.171 13.8897 20.0303 14.0303C19.8897 14.171 19.6989 14.25 19.5 14.25C19.3011 14.25 19.1103 14.171 18.9697 14.0303C18.829 13.8897 18.75 13.6989 18.75 13.5V10.5C18.75 10.3011 18.829 10.1103 18.9697 9.96967C19.1103 9.82902 19.3011 9.75 19.5 9.75C19.6989 9.75 19.8897 9.82902 20.0303 9.96967C20.171 10.1103 20.25 10.3011 20.25 10.5ZM20.25 5.25V6.75C20.25 6.94891 20.171 7.13968 20.0303 7.28033C19.8897 7.42098 19.6989 7.5 19.5 7.5C19.3011 7.5 19.1103 7.42098 18.9697 7.28033C18.829 7.13968 18.75 6.94891 18.75 6.75V5.25H17.25C17.0511 5.25 16.8603 5.17098 16.7197 5.03033C16.579 4.88968 16.5 4.69891 16.5 4.5C16.5 4.30109 16.579 4.11032 16.7197 3.96967C16.8603 3.82902 17.0511 3.75 17.25 3.75H18.75C19.1478 3.75 19.5294 3.90804 19.8107 4.18934C20.092 4.47064 20.25 4.85218 20.25 5.25ZM14.25 4.5C14.25 4.69891 14.171 4.88968 14.0303 5.03033C13.8897 5.17098 13.6989 5.25 13.5 5.25H10.5C10.3011 5.25 10.1103 5.17098 9.96967 5.03033C9.82902 4.88968 9.75 4.69891 9.75 4.5C9.75 4.30109 9.82902 4.11032 9.96967 3.96967C10.1103 3.82902 10.3011 3.75 10.5 3.75H13.5C13.6989 3.75 13.8897 3.82902 14.0303 3.96967C14.171 4.11032 14.25 4.30109 14.25 4.5ZM3.75 7.5V5.25C3.75 4.85218 3.90804 4.47064 4.18934 4.18934C4.47064 3.90804 4.85218 3.75 5.25 3.75H6.75C6.94891 3.75 7.13968 3.82902 7.28033 3.96967C7.42098 4.11032 7.5 4.30109 7.5 4.5C7.5 4.69891 7.42098 4.88968 7.28033 5.03033C7.13968 5.17098 6.94891 5.25 6.75 5.25H5.25V7.5C5.25 7.69891 5.17098 7.88968 5.03033 8.03033C4.88968 8.17098 4.69891 8.25 4.5 8.25C4.30109 8.25 4.11032 8.17098 3.96967 8.03033C3.82902 7.88968 3.75 7.69891 3.75 7.5Z" fill="white"/>
</g>
</svg>
