<svg width="24" height="24" viewBox="0 0 24 24" fill="none" xmlns="http://www.w3.org/2000/svg">
<g id="mingcute:rotate-to-horizontal-line" clip-path="url(#clip0_95_3772)">
<g id="Group">
<path id="Vector" d="M3 5C3 4.46957 3.21071 3.96086 3.58579 3.58579C3.96086 3.21071 4.46957 3 5 3H11C11.5304 3 12.0391 3.21071 12.4142 3.58579C12.7893 3.96086 13 4.46957 13 5V9C13 9.26522 12.8946 9.51957 12.7071 9.70711C12.5196 9.89464 12.2652 10 12 10C11.7348 10 11.4804 9.89464 11.2929 9.70711C11.1054 9.51957 11 9.26522 11 9V5H5V9C5 9.26522 4.89464 9.51957 4.70711 9.70711C4.51957 9.89464 4.26522 10 4 10C3.73478 10 3.48043 9.89464 3.29289 9.70711C3.10536 9.51957 3 9.26522 3 9V5ZM18.717 4.762C18.9781 4.71608 19.2467 4.77571 19.4639 4.92778C19.681 5.07986 19.8289 5.31194 19.875 5.573L20.289 7.921C20.406 8.586 19.939 9.013 19.585 9.147C19.232 9.281 18.605 9.27 18.25 8.705L18.035 8.372C17.433 7.467 16.361 6.06 15.015 5.118C14.7977 4.9659 14.6496 4.73369 14.6035 4.47245C14.5574 4.21121 14.6169 3.94234 14.769 3.725C14.9211 3.50766 15.1533 3.35963 15.4146 3.3135C15.6758 3.26737 15.9447 3.3269 16.162 3.479C16.879 3.981 17.52 4.579 18.07 5.176C18.1451 5.06764 18.241 4.97525 18.352 4.90419C18.4631 4.83313 18.5871 4.7848 18.717 4.762ZM3 19C3 19.5304 3.21071 20.0391 3.58579 20.4142C3.96086 20.7893 4.46957 21 5 21H19C19.5304 21 20.0391 20.7893 20.4142 20.4142C20.7893 20.0391 21 19.5304 21 19V13C21 12.4696 20.7893 11.9609 20.4142 11.5858C20.0391 11.2107 19.5304 11 19 11H5C4.46957 11 3.96086 11.2107 3.58579 11.5858C3.21071 11.9609 3 12.4696 3 13V19ZM5 19V13H19V19H5Z" fill="white"/>
</g>
</g>
<defs>
<clipPath id="clip0_95_3772">
<rect width="24" height="24" fill="white"/>
</clipPath>
</defs>
</svg>
