<svg width="24" height="24" viewBox="0 0 24 24" fill="none" xmlns="http://www.w3.org/2000/svg">
<g id="mingcute:rotate-to-vertical-line" clip-path="url(#clip0_95_3765)">
<g id="Group">
<path id="Vector" fill-rule="evenodd" clip-rule="evenodd" d="M3 5C3 4.46957 3.21071 3.96086 3.58579 3.58579C3.96086 3.21071 4.46957 3 5 3H11C11.5304 3 12.0391 3.21071 12.4142 3.58579C12.7893 3.96086 13 4.46957 13 5V19C13 19.5304 12.7893 20.0391 12.4142 20.4142C12.0391 20.7893 11.5304 21 11 21H5C4.46957 21 3.96086 20.7893 3.58579 20.4142C3.21071 20.0391 3 19.5304 3 19V5ZM11 5H5V19H11V5ZM14 20C14 19.7348 14.1054 19.4804 14.2929 19.2929C14.4804 19.1054 14.7348 19 15 19H19V13H15C14.7348 13 14.4804 12.8946 14.2929 12.7071C14.1054 12.5196 14 12.2652 14 12C14 11.7348 14.1054 11.4804 14.2929 11.2929C14.4804 11.1054 14.7348 11 15 11H19C19.5304 11 20.0391 11.2107 20.4142 11.5858C20.7893 11.9609 21 12.4696 21 13V19C21 19.5304 20.7893 20.0391 20.4142 20.4142C20.0391 20.7893 19.5304 21 19 21H15C14.7348 21 14.4804 20.8946 14.2929 20.7071C14.1054 20.5196 14 20.2652 14 20ZM18 4C18.198 4.00004 18.3915 4.05886 18.556 4.16899C18.7206 4.27912 18.8487 4.43562 18.9242 4.61865C18.9997 4.80168 19.0192 5.00301 18.9802 5.19711C18.9411 5.39122 18.8454 5.56937 18.705 5.709C19.389 6.147 20.088 6.674 20.707 7.293C20.8892 7.4816 20.99 7.7342 20.9877 7.9964C20.9854 8.2586 20.8802 8.50941 20.6948 8.69482C20.5094 8.88023 20.2586 8.9854 19.9964 8.98767C19.7342 8.98995 19.4816 8.88916 19.293 8.707C18.209 7.623 16.767 6.844 15.77 6.39L15.372 6.216C15.3143 6.19118 15.2563 6.16717 15.198 6.144C14.58 5.893 14.461 5.277 14.531 4.907C14.601 4.535 14.941 4 15.616 4H18Z" fill="white"/>
</g>
</g>
<defs>
<clipPath id="clip0_95_3765">
<rect width="24" height="24" fill="white"/>
</clipPath>
</defs>
</svg>
