<svg width="25" height="24" viewBox="0 0 25 24" fill="none" xmlns="http://www.w3.org/2000/svg">
<g id="streamline:image-saturation-solid" clip-path="url(#clip0_50_971)">
<path id="Vector" fill-rule="evenodd" clip-rule="evenodd" d="M12.5004 1.28568L11.5918 0.37711C11.8329 0.136338 12.1597 0.00109863 12.5004 0.00109863C12.8411 0.00109863 13.1679 0.136338 13.409 0.37711L12.5004 1.28568ZM12.5004 21.4285C11.0638 21.4285 8.94842 20.8663 7.70727 19.7485C6.42493 18.5956 5.64677 16.9851 5.54042 15.264C5.54899 14.1085 5.9707 12.7303 6.69927 11.2388C7.42442 9.75082 8.4067 8.24911 9.41127 6.89482C10.377 5.59705 11.4081 4.34916 12.5004 3.15597V21.4285ZM12.5004 1.28568L13.409 0.37711L13.4124 0.378824L13.4176 0.385682L13.4381 0.404539L13.5118 0.481682L13.7861 0.764539C15.1669 2.21863 16.4594 3.75394 17.657 5.36225C18.713 6.79025 19.793 8.43082 20.6124 10.1108C21.4233 11.772 22.0318 13.5737 22.0318 15.2965L22.0301 15.3685C21.8952 17.7819 20.8104 20.0438 19.013 21.66C17.1667 23.3245 14.3638 24 12.5004 24C10.6404 24 7.83756 23.3245 5.98785 21.6617C5.08923 20.8528 4.3599 19.8737 3.84202 18.7812C3.32414 17.6886 3.028 16.5043 2.9707 15.2965C2.9707 13.5737 3.57756 11.772 4.39013 10.1091C5.20956 8.42911 6.28785 6.79025 7.34556 5.36225C8.62176 3.64914 10.0057 2.01899 11.489 0.481682L11.5627 0.404539L11.5833 0.385682L11.5884 0.378824L11.5918 0.37711L12.5004 1.28568Z" fill="white"/>
</g>
<defs>
<clipPath id="clip0_50_971">
<rect width="24" height="24" fill="white" transform="translate(0.5)"/>
</clipPath>
</defs>
</svg>
