<svg width="8" height="8" viewBox="0 0 8 8" fill="none" xmlns="http://www.w3.org/2000/svg">
<g id="fluent:ios-arrow-24-filled">
<path id="Vector" d="M4.2431 1.22904C4.27317 1.19722 4.29668 1.15978 4.31229 1.11887C4.32789 1.07796 4.33529 1.03438 4.33405 0.990614C4.33281 0.946847 4.32296 0.903752 4.30507 0.86379C4.28718 0.823828 4.26159 0.787782 4.22977 0.757709C4.19794 0.727636 4.16051 0.704126 4.1196 0.688521C4.07869 0.672916 4.0351 0.665521 3.99134 0.666759C3.94757 0.667997 3.90447 0.677844 3.86451 0.695737C3.82455 0.71363 3.7885 0.739219 3.75843 0.771042L0.925099 3.77104C0.866586 3.83293 0.833984 3.91487 0.833984 4.00004C0.833984 4.08521 0.866586 4.16715 0.925099 4.22904L3.75843 7.22938C3.78831 7.2619 3.82434 7.28816 3.86445 7.30663C3.90456 7.32511 3.94794 7.33543 3.99207 7.337C4.03621 7.33856 4.08021 7.33135 4.12153 7.31576C4.16285 7.30018 4.20066 7.27655 4.23276 7.24623C4.26487 7.21591 4.29063 7.17951 4.30856 7.13916C4.32648 7.0988 4.3362 7.05528 4.33716 7.01113C4.33813 6.96698 4.3303 6.92308 4.31416 6.88198C4.29801 6.84088 4.27386 6.8034 4.2431 6.77171L1.62577 4.00004L4.2431 1.22904Z" fill="#151412"/>
</g>
</svg>
