<svg width="24" height="24" viewBox="0 0 24 24" fill="none" xmlns="http://www.w3.org/2000/svg">
<g id="solar:magic-stick-3-bold">
<path id="Vector" d="M3.8453 3.84504C3.30469 4.3857 3.00098 5.11897 3.00098 5.88354C3.00098 6.64812 3.30469 7.38138 3.8453 7.92204L5.4323 9.51004C5.44448 9.49626 5.45715 9.48291 5.4703 9.47004L9.4703 5.47004C9.48317 5.4569 9.49651 5.44423 9.5103 5.43204L7.9223 3.84504C7.38164 3.30443 6.64837 3.00072 5.8838 3.00072C5.11922 3.00072 4.38596 3.30443 3.8453 3.84504ZM10.5683 6.49004C10.5561 6.50384 10.5435 6.51718 10.5303 6.53004L6.5303 10.53C6.51744 10.5432 6.5041 10.5559 6.4903 10.568L16.0783 20.156C16.6222 20.6817 17.3508 20.9726 18.1071 20.9662C18.8635 20.9598 19.587 20.6564 20.1219 20.1216C20.6567 19.5868 20.96 18.8632 20.9665 18.1069C20.9729 17.3505 20.6819 16.6219 20.1563 16.078L10.5683 6.49004ZM16.1003 2.30704C16.1356 2.21644 16.1975 2.13861 16.2778 2.08374C16.3581 2.02887 16.453 1.99951 16.5503 1.99951C16.6475 1.99951 16.7425 2.02887 16.8228 2.08374C16.9031 2.13861 16.965 2.21644 17.0003 2.30704L17.4303 3.40204C17.4543 3.464 17.4909 3.52032 17.5377 3.56747C17.5845 3.61462 17.6405 3.65159 17.7023 3.67604L18.7933 4.10804C18.8836 4.14403 18.9611 4.2063 19.0157 4.28679C19.0703 4.36728 19.0995 4.46229 19.0995 4.55954C19.0995 4.6568 19.0703 4.75181 19.0157 4.8323C18.9611 4.91279 18.8836 4.97506 18.7933 5.01104L17.7033 5.44304C17.6415 5.46743 17.5854 5.50425 17.5385 5.55121C17.4915 5.59817 17.4547 5.65427 17.4303 5.71604L17.0003 6.81004C16.965 6.90065 16.9031 6.97848 16.8228 7.03335C16.7425 7.08822 16.6475 7.11758 16.5503 7.11758C16.453 7.11758 16.3581 7.08822 16.2778 7.03335C16.1975 6.97848 16.1356 6.90065 16.1003 6.81004L15.6703 5.71504C15.6459 5.65327 15.6091 5.59717 15.5621 5.55021C15.5152 5.50325 15.4591 5.46643 15.3973 5.44204L14.3073 5.01004C14.217 4.97406 14.1395 4.91179 14.0849 4.8313C14.0303 4.75081 14.0011 4.65579 14.0011 4.55854C14.0011 4.46129 14.0303 4.36628 14.0849 4.28579C14.1395 4.2053 14.217 4.14303 14.3073 4.10704L15.3973 3.67504C15.4592 3.65054 15.5153 3.61357 15.5623 3.56644C15.6093 3.5193 15.646 3.463 15.6703 3.40104L16.1003 2.30704ZM19.9673 9.13004C20.0026 9.03944 20.0645 8.96161 20.1448 8.90674C20.2251 8.85187 20.3201 8.82251 20.4173 8.82251C20.5145 8.82251 20.6095 8.85187 20.6898 8.90674C20.7701 8.96161 20.832 9.03944 20.8673 9.13004L21.0233 9.52904C21.0733 9.65404 21.1713 9.75304 21.2963 9.80204L21.6943 9.96004C21.7843 9.9962 21.8615 10.0585 21.9158 10.1388C21.9702 10.2192 21.9992 10.314 21.9992 10.411C21.9992 10.5081 21.9702 10.6029 21.9158 10.6832C21.8615 10.7636 21.7843 10.8259 21.6943 10.862L21.2963 11.02C21.2345 11.0444 21.1784 11.0812 21.1315 11.1282C21.0845 11.1752 21.0477 11.2313 21.0233 11.293L20.8673 11.693C20.832 11.7836 20.7701 11.8615 20.6898 11.9163C20.6095 11.9712 20.5145 12.0006 20.4173 12.0006C20.3201 12.0006 20.2251 11.9712 20.1448 11.9163C20.0645 11.8615 20.0026 11.7836 19.9673 11.693L19.8103 11.293C19.786 11.2314 19.7494 11.1753 19.7026 11.1284C19.6558 11.0814 19.5999 11.0445 19.5383 11.02L19.1403 10.862C19.0503 10.8259 18.9731 10.7636 18.9188 10.6832C18.8644 10.6029 18.8354 10.5081 18.8354 10.411C18.8354 10.314 18.8644 10.2192 18.9188 10.1388C18.9731 10.0585 19.0503 9.9962 19.1403 9.96004L19.5383 9.80204C19.5999 9.77754 19.6558 9.74067 19.7026 9.69372C19.7494 9.64676 19.786 9.59072 19.8103 9.52904L19.9673 9.13004ZM5.1333 15.307C5.16863 15.2164 5.23049 15.1386 5.31078 15.0837C5.39107 15.0289 5.48605 14.9995 5.5833 14.9995C5.68055 14.9995 5.77553 15.0289 5.85582 15.0837C5.93611 15.1386 5.99797 15.2164 6.0333 15.307L6.1903 15.707C6.21431 15.7689 6.25088 15.8251 6.2977 15.872C6.34451 15.919 6.40056 15.9558 6.4623 15.98L6.8603 16.137C6.95065 16.173 7.02812 16.2353 7.0827 16.3158C7.13728 16.3963 7.16646 16.4913 7.16646 16.5885C7.16646 16.6858 7.13728 16.7808 7.0827 16.8613C7.02812 16.9418 6.95065 17.0041 6.8603 17.04L6.4623 17.198C6.40068 17.2225 6.34475 17.2593 6.29796 17.3063C6.25117 17.3533 6.21452 17.4093 6.1903 17.471L6.0333 17.871C5.99797 17.9616 5.93611 18.0395 5.85582 18.0943C5.77553 18.1492 5.68055 18.1786 5.5833 18.1786C5.48605 18.1786 5.39107 18.1492 5.31078 18.0943C5.23049 18.0395 5.16863 17.9616 5.1333 17.871L4.9763 17.471C4.95207 17.4093 4.91543 17.3533 4.86864 17.3063C4.82185 17.2593 4.76592 17.2225 4.7043 17.198L4.3063 17.04C4.21595 17.0041 4.13848 16.9418 4.0839 16.8613C4.02932 16.7808 4.00014 16.6858 4.00014 16.5885C4.00014 16.4913 4.02932 16.3963 4.0839 16.3158C4.13848 16.2353 4.21595 16.173 4.3063 16.137L4.7043 15.98C4.76601 15.9555 4.82201 15.9185 4.8688 15.8713C4.9156 15.8242 4.95219 15.7679 4.9763 15.706L5.1333 15.307Z" fill="white"/>
</g>
</svg>
