<svg width="24" height="24" viewBox="0 0 24 24" fill="none" xmlns="http://www.w3.org/2000/svg">
<g id="ph:triangle">
<path id="Vector" d="M1.80095 6.36662L9.99938 20.6044C10.2043 20.9533 10.4967 21.2425 10.8478 21.4434C11.1989 21.6444 11.5964 21.7501 12.0009 21.7501C12.4055 21.7501 12.803 21.6444 13.1541 21.4434C13.5052 21.2425 13.7976 20.9533 14.0025 20.6044L22.2009 6.36662C22.3981 6.02923 22.502 5.6455 22.502 5.25475C22.502 4.86399 22.3981 4.48026 22.2009 4.14287C21.9988 3.79188 21.7068 3.50102 21.3551 3.30018C21.0033 3.09934 20.6044 2.99576 20.1994 3.00006L3.80251 3.00006C3.39779 2.99609 2.9993 3.09984 2.6479 3.30066C2.2965 3.50148 2.00484 3.79216 1.80282 4.14287C1.60542 4.48009 1.50121 4.86374 1.50088 5.25449C1.50055 5.64525 1.60411 6.02907 1.80095 6.36662ZM3.10126 4.89381C3.17273 4.77189 3.27534 4.67117 3.39857 4.60198C3.5218 4.53279 3.66121 4.49761 3.80251 4.50006L20.1994 4.50006C20.3407 4.49761 20.4801 4.53279 20.6033 4.60198C20.7266 4.67117 20.8292 4.77189 20.9006 4.89381C20.9654 5.00342 20.9995 5.12839 20.9995 5.25569C20.9995 5.38298 20.9654 5.50795 20.9006 5.61756L12.7022 19.8554C12.6293 19.9767 12.5262 20.0771 12.403 20.1468C12.2798 20.2165 12.1406 20.2532 11.9991 20.2532C11.8575 20.2532 11.7184 20.2165 11.5951 20.1468C11.4719 20.0771 11.3689 19.9767 11.2959 19.8554L3.09751 5.61756C3.03334 5.50762 2.99984 5.38247 3.0005 5.25517C3.00116 5.12787 3.03595 5.00308 3.10126 4.89381Z" fill="white"/>
</g>
</svg>
