<svg width="37" height="37" viewBox="0 0 37 37" fill="none" xmlns="http://www.w3.org/2000/svg">
<g id="flat-color-icons:google">
<path id="Vector" d="M33.617 15.4807H32.3752V15.4167H18.5002V21.5834H27.2129C25.9418 25.1731 22.5262 27.75 18.5002 27.75C13.3919 27.75 9.25016 23.6084 9.25016 18.5C9.25016 13.3917 13.3919 9.25004 18.5002 9.25004C20.8581 9.25004 23.0034 10.1396 24.6368 11.5926L28.9974 7.232C26.244 4.66589 22.5609 3.08337 18.5002 3.08337C9.98631 3.08337 3.0835 9.98619 3.0835 18.5C3.0835 27.0139 9.98631 33.9167 18.5002 33.9167C27.014 33.9167 33.9168 27.0139 33.9168 18.5C33.9168 17.4664 33.8105 16.4573 33.617 15.4807Z" fill="#FFC107"/>
<path id="Vector_2" d="M4.86084 11.3244L9.92599 15.039C11.2965 11.6458 14.6157 9.25004 18.5 9.25004C20.8579 9.25004 23.0032 10.1396 24.6366 11.5926L28.9972 7.232C26.2438 4.66589 22.5607 3.08337 18.5 3.08337C12.5784 3.08337 7.44313 6.42648 4.86084 11.3244Z" fill="#FF3D00"/>
<path id="Vector_3" d="M18.5001 33.9167C22.4822 33.9167 26.1005 32.3928 28.8362 29.9145L24.0647 25.8769C22.4649 27.0936 20.51 27.7516 18.5001 27.75C14.4902 27.75 11.0854 25.1932 9.80277 21.625L4.77539 25.4984C7.32685 30.4911 12.5084 33.9167 18.5001 33.9167Z" fill="#4CAF50"/>
<path id="Vector_4" d="M33.6168 15.4806H32.375V15.4166H18.5V21.5833H27.2127C26.6047 23.2918 25.5095 24.7847 24.0623 25.8776L24.0646 25.8761L28.8361 29.9137C28.4985 30.2205 33.9167 26.2083 33.9167 18.5C33.9167 17.4663 33.8103 16.4573 33.6168 15.4806Z" fill="#1976D2"/>
</g>
</svg>
