<svg width="20" height="20" viewBox="0 0 20 20" fill="none" xmlns="http://www.w3.org/2000/svg">
<g id="healthicons:health-alt-outline">
<g id="Group">
<path id="Vector" d="M5.83301 9.16671H9.16634V5.83337H10.833V9.16671H14.1663V10.8334H10.833V14.1667H9.16634V10.8334H5.83301V9.16671Z" fill="#1CD29B"/>
<path id="Vector_2" fill-rule="evenodd" clip-rule="evenodd" d="M3.75 2.5C3.41848 2.5 3.10054 2.6317 2.86612 2.86612C2.6317 3.10054 2.5 3.41848 2.5 3.75V16.25C2.5 16.5815 2.6317 16.8995 2.86612 17.1339C3.10054 17.3683 3.41848 17.5 3.75 17.5H16.25C16.5815 17.5 16.8995 17.3683 17.1339 17.1339C17.3683 16.8995 17.5 16.5815 17.5 16.25V3.75C17.5 3.41848 17.3683 3.10054 17.1339 2.86612C16.8995 2.6317 16.5815 2.5 16.25 2.5H3.75ZM16.6667 3.75C16.6667 3.63949 16.6228 3.53351 16.5446 3.45537C16.4665 3.37723 16.3605 3.33333 16.25 3.33333H3.75C3.63949 3.33333 3.53351 3.37723 3.45537 3.45537C3.37723 3.53351 3.33333 3.63949 3.33333 3.75V16.25C3.33333 16.3605 3.37723 16.4665 3.45537 16.5446C3.53351 16.6228 3.63949 16.6667 3.75 16.6667H16.25C16.3605 16.6667 16.4665 16.6228 16.5446 16.5446C16.6228 16.4665 16.6667 16.3605 16.6667 16.25V3.75Z" fill="#1CD29B"/>
</g>
</g>
</svg>
