<svg width="20" height="20" viewBox="0 0 20 20" fill="none" xmlns="http://www.w3.org/2000/svg">
<g id="Frame 1000001187">
<g id="Group">
<path id="Vector" d="M4.85742 6.87146H13.4288M5.79171 9.76479L6.74409 9.74765C6.97739 9.74316 7.20422 9.82446 7.38153 9.97615C7.55884 10.1278 7.6743 10.3393 7.70599 10.5705L7.71456 10.6991V11.6362C7.71461 11.8857 7.61676 12.1252 7.44205 12.3033C7.26734 12.4814 7.02972 12.5839 6.78028 12.5886L5.8279 12.6057C5.5946 12.6102 5.36777 12.5289 5.19046 12.3772C5.01314 12.2256 4.89768 12.0141 4.86599 11.7829L4.85742 11.6534V10.7172C4.85738 10.4677 4.95523 10.2282 5.12994 10.0501C5.30465 9.87196 5.54227 9.76953 5.79171 9.76479Z" stroke="#1CD29B" stroke-linecap="round" stroke-linejoin="round"/>
<path id="Vector_2" d="M9.61905 9.72857H13.4286M9.61905 12.5857H13.4286M3.90476 4H14.381C14.8861 4 15.3706 4.20068 15.7278 4.55789C16.085 4.9151 16.2857 5.39959 16.2857 5.90476V15.4429H3.90476C3.39959 15.4429 2.9151 15.2422 2.55789 14.885C2.20068 14.5278 2 14.0433 2 13.5381V5.90571C2 5.40054 2.20068 4.91606 2.55789 4.55884C2.9151 4.20163 3.39959 4 3.90476 4Z" stroke="#1CD29B" stroke-linecap="round" stroke-linejoin="round"/>
<path id="Vector_3" d="M15.8096 15.4429C16.441 15.4429 17.0466 15.192 17.4932 14.7455C17.9397 14.299 18.1905 13.6934 18.1905 13.0619V6.87146H16.2858" stroke="#1CD29B" stroke-linecap="round" stroke-linejoin="round"/>
</g>
</g>
</svg>
