<svg width="20" height="20" viewBox="0 0 20 20" fill="none" xmlns="http://www.w3.org/2000/svg">
<g id="clarity:edit-line" clip-path="url(#clip0_221_2448)">
<path id="Vector" d="M18.8155 4.62219L15.5544 1.34441C15.3389 1.13001 15.0472 1.00964 14.7433 1.00964C14.4393 1.00964 14.1476 1.13001 13.9321 1.34441L2.37103 12.8889L1.31548 17.4444C1.27906 17.6109 1.28031 17.7835 1.31913 17.9495C1.35795 18.1155 1.43336 18.2707 1.53985 18.4038C1.64633 18.5369 1.78121 18.6446 1.93463 18.7189C2.08805 18.7932 2.25613 18.8323 2.42659 18.8333C2.50602 18.8413 2.58605 18.8413 2.66548 18.8333L7.27103 17.7777L18.8155 6.24441C19.0299 6.02892 19.1502 5.73729 19.1502 5.4333C19.1502 5.12931 19.0299 4.83769 18.8155 4.62219ZM6.71548 16.7777L2.39881 17.6833L3.38214 13.45L12.0321 4.8333L15.3655 8.16664L6.71548 16.7777ZM16.1099 7.36108L12.7766 4.02775L14.7099 2.10553L17.9877 5.43886L16.1099 7.36108Z" fill="black"/>
</g>
<defs>
<clipPath id="clip0_221_2448">
<rect width="20" height="20" fill="white"/>
</clipPath>
</defs>
</svg>
