<svg width="20" height="20" viewBox="0 0 20 20" fill="none" xmlns="http://www.w3.org/2000/svg">
<g id="mage:notification-bell">
<g id="Group">
<path id="Vector" d="M9.96897 14.9883H15.644C15.865 15.0007 16.0854 14.9563 16.2844 14.8593C16.4833 14.7623 16.6541 14.6159 16.7805 14.4342C16.9068 14.2524 16.9845 14.0414 17.0061 13.8211C17.0277 13.6008 16.9926 13.3786 16.904 13.1758C16.604 12.2691 15.4081 11.1816 15.4081 10.1116C15.4081 7.73665 15.4081 7.11164 14.2381 5.71498C13.8591 5.26588 13.3897 4.90159 12.8606 4.64581L12.2081 4.32915C12.0983 4.2635 12.0035 4.17537 11.9302 4.07053C11.8568 3.96568 11.8064 3.8465 11.7823 3.72081C11.7171 3.29782 11.4934 2.91547 11.1567 2.6513C10.8199 2.38714 10.3953 2.26094 9.96897 2.29831C9.55031 2.27317 9.13732 2.40499 8.81064 2.66803C8.48396 2.93107 8.26706 3.30643 8.2023 3.72081C8.17298 3.85066 8.11546 3.97247 8.0338 4.0776C7.95214 4.18273 7.84836 4.26861 7.7298 4.32915L7.0773 4.64581C6.5485 4.90169 6.07945 5.26597 5.70064 5.71498C4.53147 7.11164 4.53147 7.73665 4.53147 10.1116C4.53147 11.1816 3.3898 12.16 3.0898 13.1208C2.90897 13.7016 2.80897 14.9883 4.32314 14.9883H9.96897Z" stroke="black" stroke-width="1.5" stroke-linecap="round" stroke-linejoin="round"/>
<path id="Vector_2" d="M12.6881 14.9883C12.6955 15.3474 12.6302 15.7043 12.4962 16.0375C12.3621 16.3708 12.1621 16.6735 11.9081 16.9274C11.6541 17.1814 11.3514 17.3815 11.0182 17.5155C10.685 17.6495 10.3281 17.7148 9.96895 17.7074C9.60981 17.7151 9.25285 17.6499 8.91955 17.516C8.58625 17.382 8.2835 17.182 8.02954 16.9279C7.77557 16.6739 7.57564 16.3711 7.44178 16.0377C7.30792 15.7044 7.24289 15.3474 7.25062 14.9883" stroke="black" stroke-width="1.5" stroke-linecap="round" stroke-linejoin="round"/>
</g>
</g>
</svg>
