<svg width="20" height="20" viewBox="0 0 20 20" fill="none" xmlns="http://www.w3.org/2000/svg">
<g id="iconamoon:profile-light">
<g id="Group">
<path id="Vector" d="M3.33398 15.0001C3.33398 14.116 3.68517 13.2682 4.31029 12.6431C4.93542 12.0179 5.78326 11.6667 6.66732 11.6667H13.334C14.218 11.6667 15.0659 12.0179 15.691 12.6431C16.3161 13.2682 16.6673 14.116 16.6673 15.0001C16.6673 15.4421 16.4917 15.866 16.1792 16.1786C15.8666 16.4912 15.4427 16.6667 15.0007 16.6667H5.00065C4.55862 16.6667 4.1347 16.4912 3.82214 16.1786C3.50958 15.866 3.33398 15.4421 3.33398 15.0001Z" stroke="black" stroke-width="1.5" stroke-linejoin="round"/>
<path id="Vector_2" d="M10 8.33337C11.3807 8.33337 12.5 7.21409 12.5 5.83337C12.5 4.45266 11.3807 3.33337 10 3.33337C8.61929 3.33337 7.5 4.45266 7.5 5.83337C7.5 7.21409 8.61929 8.33337 10 8.33337Z" stroke="black" stroke-width="1.5"/>
</g>
</g>
</svg>
