<svg width="20" height="20" viewBox="0 0 20 20" fill="none" xmlns="http://www.w3.org/2000/svg">
<g id="solar:settings-outline">
<g id="Group">
<path id="Vector" fill-rule="evenodd" clip-rule="evenodd" d="M10 6.875C9.1712 6.875 8.37634 7.20424 7.79029 7.79029C7.20424 8.37634 6.875 9.1712 6.875 10C6.875 10.8288 7.20424 11.6237 7.79029 12.2097C8.37634 12.7958 9.1712 13.125 10 13.125C10.8288 13.125 11.6237 12.7958 12.2097 12.2097C12.7958 11.6237 13.125 10.8288 13.125 10C13.125 9.1712 12.7958 8.37634 12.2097 7.79029C11.6237 7.20424 10.8288 6.875 10 6.875ZM8.125 10C8.125 9.50272 8.32254 9.02581 8.67417 8.67417C9.02581 8.32254 9.50272 8.125 10 8.125C10.4973 8.125 10.9742 8.32254 11.3258 8.67417C11.6775 9.02581 11.875 9.50272 11.875 10C11.875 10.4973 11.6775 10.9742 11.3258 11.3258C10.9742 11.6775 10.4973 11.875 10 11.875C9.50272 11.875 9.02581 11.6775 8.67417 11.3258C8.32254 10.9742 8.125 10.4973 8.125 10Z" fill="black"/>
<path id="Vector_2" fill-rule="evenodd" clip-rule="evenodd" d="M9.97882 1.04163C9.60798 1.04163 9.29882 1.04163 9.04548 1.05829C8.78654 1.06908 8.53115 1.12257 8.28965 1.21663C8.01153 1.3317 7.75879 1.50044 7.54589 1.7132C7.33298 1.92596 7.16408 2.17858 7.04882 2.45663C6.92798 2.74829 6.89548 3.05663 6.88215 3.39163C6.88082 3.51414 6.84838 3.63431 6.78789 3.74087C6.7274 3.84742 6.64084 3.93686 6.53632 4.00079C6.42872 4.05955 6.30795 4.08999 6.18536 4.08926C6.06277 4.08853 5.94237 4.05665 5.83548 3.99663C5.53882 3.83996 5.25548 3.71413 4.94215 3.67246C4.64377 3.63321 4.34058 3.65312 4.0499 3.73105C3.75921 3.80897 3.48672 3.94339 3.24798 4.12663C3.04613 4.28903 2.87241 4.48358 2.73382 4.70246C2.59215 4.91413 2.43715 5.18163 2.25215 5.50246L2.23132 5.53913C2.04548 5.85996 1.89132 6.12746 1.77965 6.35579C1.66298 6.59413 1.57132 6.82913 1.53798 7.08913C1.45848 7.69162 1.62155 8.30102 1.99132 8.78329C2.18382 9.03413 2.43465 9.21663 2.71798 9.39496C2.82362 9.45741 2.91162 9.54571 2.97373 9.65155C3.03583 9.75739 3.06999 9.87728 3.07298 9.99996C3.06999 10.1226 3.03583 10.2425 2.97373 10.3484C2.91162 10.4542 2.82362 10.5425 2.71798 10.605C2.43465 10.7833 2.18465 10.9658 1.99132 11.2166C1.80808 11.4554 1.67366 11.7279 1.59574 12.0185C1.51781 12.3092 1.4979 12.6124 1.53715 12.9108C1.57132 13.1708 1.66215 13.4058 1.77882 13.6441C1.89132 13.8725 2.04548 14.14 2.23132 14.4608L2.25215 14.4975C2.43715 14.8183 2.59215 15.0858 2.73382 15.2975C2.88132 15.5166 3.03965 15.7141 3.24798 15.8725C3.48666 16.0558 3.75912 16.1904 4.04981 16.2685C4.3405 16.3465 4.64372 16.3666 4.94215 16.3275C5.25548 16.2858 5.53882 16.1608 5.83548 16.0033C5.94225 15.9433 6.0625 15.9115 6.18495 15.9108C6.30739 15.91 6.42801 15.9404 6.53548 15.9991C6.64058 16.0626 6.72769 16.1518 6.78852 16.2585C6.84935 16.3651 6.88187 16.4855 6.88298 16.6083C6.89548 16.9433 6.92798 17.2516 7.04965 17.5433C7.16472 17.8214 7.33346 18.0741 7.54622 18.2871C7.75898 18.5 8.0116 18.6689 8.28965 18.7841C8.53132 18.8841 8.78132 18.9233 9.04548 18.9408C9.29882 18.9583 9.60798 18.9583 9.97882 18.9583H10.0205C10.3913 18.9583 10.7005 18.9583 10.9538 18.9416C11.2188 18.9233 11.468 18.8841 11.7097 18.7833C11.9878 18.6682 12.2405 18.4995 12.4534 18.2867C12.6663 18.074 12.8352 17.8213 12.9505 17.5433C13.0713 17.2516 13.1038 16.9433 13.1172 16.6083C13.1183 16.4856 13.1507 16.3653 13.2112 16.2586C13.2717 16.1519 13.3583 16.0623 13.463 15.9983C13.5707 15.9397 13.6915 15.9094 13.814 15.9102C13.9366 15.9111 14.057 15.9431 14.1638 16.0033C14.4605 16.16 14.7438 16.2858 15.0572 16.3266C15.6596 16.4061 16.269 16.2431 16.7513 15.8733C16.9597 15.7133 17.118 15.5166 17.2655 15.2975C17.4072 15.0858 17.5622 14.8183 17.7472 14.4975L17.768 14.4608C17.9538 14.14 18.108 13.8725 18.2197 13.6441C18.3363 13.4058 18.428 13.17 18.4613 12.9108C18.5408 12.3083 18.3778 11.6989 18.008 11.2166C17.8155 10.9658 17.5647 10.7833 17.2813 10.605C17.1757 10.5425 17.0877 10.4542 17.0256 10.3484C16.9635 10.2425 16.9293 10.1226 16.9263 9.99996C16.9263 9.76829 17.053 9.53829 17.2813 9.39496C17.5647 9.21663 17.8147 9.03413 18.008 8.78329C18.1912 8.54456 18.3256 8.27207 18.4036 7.98138C18.4815 7.69069 18.5014 7.38751 18.4622 7.08913C18.4225 6.83305 18.3408 6.58528 18.2205 6.35579C18.0782 6.07892 17.9273 5.80656 17.768 5.53913L17.7472 5.50246C17.5949 5.23087 17.4343 4.96407 17.2655 4.70246C17.1269 4.48381 16.9532 4.28953 16.7513 4.12746C16.5126 3.94408 16.2402 3.80951 15.9495 3.73144C15.6588 3.65337 15.3556 3.63333 15.0572 3.67246C14.7438 3.71413 14.4605 3.83913 14.1638 3.99663C14.057 4.05651 13.9368 4.0883 13.8144 4.08903C13.6919 4.08976 13.5713 4.0594 13.4638 4.00079C13.359 3.93706 13.2721 3.84771 13.2113 3.74114C13.1505 3.63458 13.1178 3.5143 13.1163 3.39163C13.1038 3.05663 13.0713 2.74829 12.9496 2.45663C12.8346 2.1785 12.6658 1.92577 12.4531 1.71286C12.2403 1.49996 11.9877 1.33105 11.7097 1.21579C11.468 1.11579 11.218 1.07663 10.9538 1.05913C10.7005 1.04163 10.3913 1.04163 10.0205 1.04163H9.97882ZM8.76798 2.37079C8.83215 2.34413 8.92965 2.31996 9.13048 2.30579C9.33632 2.29163 9.60298 2.29163 9.99965 2.29163C10.3963 2.29163 10.663 2.29163 10.8688 2.30579C11.0697 2.31996 11.1671 2.34413 11.2313 2.37079C11.4872 2.47663 11.6896 2.67913 11.7955 2.93496C11.8288 3.01496 11.8563 3.14079 11.8672 3.43829C11.8921 4.09829 12.233 4.73413 12.838 5.08329C13.443 5.43329 14.1638 5.40996 14.748 5.10163C15.0113 4.96246 15.1338 4.92329 15.2205 4.91246C15.4943 4.87628 15.7713 4.95032 15.9905 5.11829C16.0455 5.16079 16.1155 5.23329 16.228 5.39996C16.3438 5.57163 16.4771 5.80246 16.6755 6.14579C16.8738 6.48913 17.0063 6.72079 17.0972 6.90579C17.1863 7.08663 17.2138 7.18329 17.2221 7.25246C17.2583 7.52626 17.1843 7.80323 17.0163 8.02246C16.963 8.09163 16.868 8.17829 16.6163 8.33663C16.0563 8.68829 15.6763 9.30163 15.6763 9.99996C15.6763 10.6983 16.0563 11.3116 16.6163 11.6633C16.868 11.8216 16.963 11.9083 17.0163 11.9775C17.1847 12.1966 17.258 12.4733 17.2221 12.7475C17.2138 12.8166 17.1855 12.9141 17.0972 13.0941C17.0063 13.28 16.8738 13.5108 16.6755 13.8541C16.4771 14.1975 16.343 14.4283 16.228 14.6C16.1155 14.7666 16.0455 14.8391 15.9905 14.8816C15.7713 15.0496 15.4943 15.1236 15.2205 15.0875C15.1338 15.0766 15.0122 15.0375 14.748 14.8983C14.1646 14.59 13.443 14.5666 12.838 14.9158C12.233 15.2658 11.8921 15.9016 11.8672 16.5616C11.8563 16.8591 11.8288 16.985 11.7955 17.065C11.7431 17.1915 11.6664 17.3064 11.5696 17.4032C11.4728 17.5 11.3578 17.5768 11.2313 17.6291C11.1671 17.6558 11.0697 17.68 10.8688 17.6941C10.663 17.7083 10.3963 17.7083 9.99965 17.7083C9.60298 17.7083 9.33632 17.7083 9.13048 17.6941C8.92965 17.68 8.83215 17.6558 8.76798 17.6291C8.64149 17.5768 8.52655 17.5 8.42974 17.4032C8.33294 17.3064 8.25617 17.1915 8.20382 17.065C8.17048 16.985 8.14298 16.8591 8.13215 16.5616C8.10715 15.9016 7.76632 15.2658 7.16132 14.9166C6.55632 14.5666 5.83548 14.59 5.25132 14.8983C4.98798 15.0375 4.86548 15.0766 4.77882 15.0875C4.50501 15.1236 4.22805 15.0496 4.00882 14.8816C3.95382 14.8391 3.88382 14.7666 3.77132 14.6C3.61458 14.356 3.46534 14.1072 3.32382 13.8541C3.12548 13.5108 2.99298 13.2791 2.90215 13.0941C2.81298 12.9133 2.78548 12.8166 2.77715 12.7475C2.74097 12.4737 2.81501 12.1967 2.98298 11.9775C3.03632 11.9083 3.13132 11.8216 3.38298 11.6633C3.94298 11.3116 4.32298 10.6983 4.32298 9.99996C4.32298 9.30163 3.94298 8.68829 3.38298 8.33663C3.13132 8.17829 3.03632 8.09163 2.98298 8.02246C2.81501 7.80323 2.74097 7.52626 2.77715 7.25246C2.78548 7.18329 2.81382 7.08579 2.90215 6.90579C2.99298 6.71996 3.12548 6.48913 3.32382 6.14579C3.52215 5.80246 3.65632 5.57163 3.77132 5.39996C3.88382 5.23329 3.95382 5.16079 4.00882 5.11829C4.22805 4.95032 4.50501 4.87628 4.77882 4.91246C4.86548 4.92329 4.98715 4.96246 5.25132 5.10163C5.83465 5.40996 6.55632 5.43329 7.16132 5.08329C7.76632 4.73413 8.10715 4.09829 8.13215 3.43829C8.14298 3.14079 8.17048 3.01496 8.20382 2.93496C8.30965 2.67913 8.51215 2.47663 8.76798 2.37079Z" fill="black"/>
</g>
</g>
</svg>
