<svg width="20" height="20" viewBox="0 0 20 20" fill="none" xmlns="http://www.w3.org/2000/svg">
<g id="Frame 1000001186">
<g id="Group">
<path id="Vector" d="M4.5 7.5835C4.5 7.5835 2.35708 8.41683 2 11.3335M16.1667 7.5835C16.1667 7.5835 18.3096 8.41683 18.6667 11.3335M7.83333 7.5835C7.83333 7.5835 9.83333 8.06975 10.3333 10.5002C10.8333 8.06975 12.8333 7.5835 12.8333 7.5835M8.66667 13.8335C8.66667 13.8335 6.91667 14.146 6.16667 16.3335M12 13.8335C12 13.8335 13.75 14.146 14.5 16.3335" stroke="#1CD29B" stroke-linecap="round"/>
<path id="Vector_2" d="M10.3333 14.6667C11.4839 14.6667 12.4167 13.7339 12.4167 12.5833C12.4167 11.4327 11.4839 10.5 10.3333 10.5C9.18274 10.5 8.25 11.4327 8.25 12.5833C8.25 13.7339 9.18274 14.6667 10.3333 14.6667Z" stroke="#1CD29B" stroke-linecap="round" stroke-linejoin="round"/>
<path id="Vector_3" d="M14.5 8C15.8807 8 17 6.88071 17 5.5C17 4.11929 15.8807 3 14.5 3C13.1193 3 12 4.11929 12 5.5C12 6.88071 13.1193 8 14.5 8Z" stroke="#1CD29B" stroke-linecap="round" stroke-linejoin="round"/>
<path id="Vector_4" d="M6.16699 8C7.5477 8 8.66699 6.88071 8.66699 5.5C8.66699 4.11929 7.5477 3 6.16699 3C4.78628 3 3.66699 4.11929 3.66699 5.5C3.66699 6.88071 4.78628 8 6.16699 8Z" stroke="#1CD29B" stroke-linecap="round" stroke-linejoin="round"/>
</g>
</g>
</svg>
