<svg width="16" height="12" viewBox="0 0 16 12" fill="none" xmlns="http://www.w3.org/2000/svg">
<path id="Vector" d="M9.795 6.38496H13.1925V5.55163H9.795V6.38496ZM9.795 4.07663H13.1925V3.24329H9.795V4.07663ZM2.8075 8.75663H8.32083V8.61829C8.32083 8.13218 8.07639 7.75579 7.5875 7.48913C7.09861 7.22246 6.42417 7.08913 5.56417 7.08913C4.70417 7.08913 4.02944 7.22246 3.54 7.48913C3.05056 7.75579 2.80639 8.13218 2.8075 8.61829V8.75663ZM5.56417 5.74329C5.91583 5.74329 6.21194 5.62301 6.4525 5.38246C6.69361 5.14135 6.81417 4.84496 6.81417 4.49329C6.81417 4.14163 6.69361 3.84552 6.4525 3.60496C6.21139 3.3644 5.91528 3.24385 5.56417 3.24329C5.21306 3.24274 4.91694 3.36329 4.67583 3.60496C4.43472 3.84663 4.31417 4.14274 4.31417 4.49329C4.31417 4.84385 4.43472 5.14024 4.67583 5.38246C4.91694 5.62468 5.21306 5.74496 5.56417 5.74329ZM1.84667 11.8333C1.46278 11.8333 1.1425 11.705 0.885833 11.4483C0.629167 11.1916 0.500556 10.8711 0.5 10.4866V1.51329C0.5 1.1294 0.628611 0.809126 0.885833 0.552459C1.14306 0.295792 1.46306 0.167182 1.84583 0.166626H14.1542C14.5375 0.166626 14.8575 0.295237 15.1142 0.552459C15.3708 0.809681 15.4994 1.12996 15.5 1.51329V10.4875C15.5 10.8708 15.3714 11.1911 15.1142 11.4483C14.8569 11.7055 14.5369 11.8338 14.1542 11.8333H1.84667ZM1.84667 11H14.1542C14.2819 11 14.3994 10.9466 14.5067 10.84C14.6139 10.7333 14.6672 10.6155 14.6667 10.4866V1.51329C14.6667 1.38496 14.6133 1.26718 14.5067 1.15996C14.4 1.05274 14.2825 0.999404 14.1542 0.999959H1.84583C1.71806 0.999959 1.60056 1.05329 1.49333 1.15996C1.38611 1.26663 1.33278 1.3844 1.33333 1.51329V10.4875C1.33333 10.6152 1.38667 10.7327 1.49333 10.84C1.6 10.9472 1.7175 11.0005 1.84583 11" fill="#1CD29B"/>
</svg>
