<svg width="20" height="20" viewBox="0 0 20 20" fill="none" xmlns="http://www.w3.org/2000/svg">
<g id="Frame 1000001185">
<g id="Group">
<path id="Vector" d="M7.42912 4.42881C7.42912 4.31515 7.47427 4.20614 7.55464 4.12577C7.63501 4.0454 7.74402 4.00024 7.85768 4.00024H12.1434C12.257 4.00024 12.366 4.0454 12.4464 4.12577C12.5268 4.20614 12.5719 4.31515 12.5719 4.42881C12.5719 4.54248 12.5268 4.65148 12.4464 4.73186C12.366 4.81223 12.257 4.85738 12.1434 4.85738H7.85768C7.74402 4.85738 7.63501 4.81223 7.55464 4.73186C7.47427 4.65148 7.42912 4.54248 7.42912 4.42881ZM6.14341 6.57165C6.02975 6.57165 5.92074 6.6168 5.84037 6.69718C5.76 6.77755 5.71484 6.88656 5.71484 7.00022C5.71484 7.11388 5.76 7.22289 5.84037 7.30326C5.92074 7.38364 6.02975 7.42879 6.14341 7.42879H13.8576C13.9713 7.42879 14.0803 7.38364 14.1607 7.30326C14.2411 7.22289 14.2862 7.11388 14.2862 7.00022C14.2862 6.88656 14.2411 6.77755 14.1607 6.69718C14.0803 6.6168 13.9713 6.57165 13.8576 6.57165H6.14341ZM5.71484 8.71449C5.71484 8.60083 5.76 8.49182 5.84037 8.41145C5.92074 8.33108 6.02975 8.28592 6.14341 8.28592H13.8576C13.9713 8.28592 14.0803 8.33108 14.1607 8.41145C14.2411 8.49182 14.2862 8.60083 14.2862 8.71449C14.2862 8.82816 14.2411 8.93716 14.1607 9.01754C14.0803 9.09791 13.9713 9.14306 13.8576 9.14306H6.14341C6.02975 9.14306 5.92074 9.09791 5.84037 9.01754C5.76 8.93716 5.71484 8.82816 5.71484 8.71449ZM6.14341 10.0002C6.02975 10.0002 5.92074 10.0453 5.84037 10.1257C5.76 10.2061 5.71484 10.3151 5.71484 10.4288C5.71484 10.5424 5.76 10.6514 5.84037 10.7318C5.92074 10.8122 6.02975 10.8573 6.14341 10.8573H13.8576C13.9713 10.8573 14.0803 10.8122 14.1607 10.7318C14.2411 10.6514 14.2862 10.5424 14.2862 10.4288C14.2862 10.3151 14.2411 10.2061 14.1607 10.1257C14.0803 10.0453 13.9713 10.0002 13.8576 10.0002H6.14341Z" fill="#1CD29B"/>
<path id="Vector_2" fill-rule="evenodd" clip-rule="evenodd" d="M15.9999 15.1428C15.9999 15.5974 15.8193 16.0334 15.4978 16.3549C15.1763 16.6764 14.7403 16.857 14.2856 16.857H12.9999V18.5713L11.7142 17.9285L10.4285 18.5713V16.857H5.71427C5.25962 16.857 4.82359 16.6764 4.5021 16.3549C4.18061 16.0334 4 15.5974 4 15.1428V3.14286C4 2.68821 4.18061 2.25218 4.5021 1.93069C4.82359 1.6092 5.25962 1.42859 5.71427 1.42859H14.2856C14.7403 1.42859 15.1763 1.6092 15.4978 1.93069C15.8193 2.25218 15.9999 2.68821 15.9999 3.14286V15.1428ZM5.71427 2.28572C5.48695 2.28572 5.26893 2.37603 5.10819 2.53677C4.94744 2.69752 4.85714 2.91553 4.85714 3.14286V15.1428C4.85714 15.3701 4.94744 15.5881 5.10819 15.7489C5.26893 15.9096 5.48695 15.9999 5.71427 15.9999H10.4285V14.991C10.2103 14.7436 10.0681 14.4385 10.019 14.1122C9.96995 13.786 10.016 13.4525 10.1518 13.1518C10.2875 12.8512 10.5071 12.596 10.7843 12.4171C11.0614 12.2381 11.3843 12.1429 11.7142 12.1429C12.0441 12.1429 12.367 12.2381 12.6442 12.4171C12.9213 12.596 13.1409 12.8512 13.2767 13.1518C13.4124 13.4525 13.4585 13.786 13.4094 14.1122C13.3603 14.4385 13.2181 14.7436 12.9999 14.991V15.9999H14.2856C14.513 15.9999 14.731 15.9096 14.8917 15.7489C15.0525 15.5881 15.1428 15.3701 15.1428 15.1428V3.14286C15.1428 2.91553 15.0525 2.69752 14.8917 2.53677C14.731 2.37603 14.513 2.28572 14.2856 2.28572H5.71427ZM12.1428 15.5173C11.8617 15.5899 11.5668 15.5899 11.2857 15.5173V17.1845L11.7142 16.9702L12.1428 17.1845V15.5173ZM11.7142 14.7142C11.9415 14.7142 12.1596 14.6239 12.3203 14.4631C12.4811 14.3024 12.5714 14.0844 12.5714 13.8571C12.5714 13.6297 12.4811 13.4117 12.3203 13.251C12.1596 13.0902 11.9415 12.9999 11.7142 12.9999C11.4869 12.9999 11.2689 13.0902 11.1081 13.251C10.9474 13.4117 10.8571 13.6297 10.8571 13.8571C10.8571 14.0844 10.9474 14.3024 11.1081 14.4631C11.2689 14.6239 11.4869 14.7142 11.7142 14.7142Z" fill="#1CD29B"/>
</g>
</g>
</svg>
