<svg width="20" height="20" viewBox="0 0 20 20" fill="none" xmlns="http://www.w3.org/2000/svg">
<g id="circum:passport-1">
<path id="Vector" d="M13.7503 18.28H6.25033C5.69779 18.28 5.16789 18.0605 4.77719 17.6698C4.38649 17.2791 4.16699 16.7492 4.16699 16.1966V3.8033C4.16699 3.25077 4.38649 2.72087 4.77719 2.33016C5.16789 1.93946 5.69779 1.71997 6.25033 1.71997H13.7503C14.3029 1.71997 14.8328 1.93946 15.2235 2.33016C15.6142 2.72087 15.8337 3.25077 15.8337 3.8033V16.1966C15.8337 16.7492 15.6142 17.2791 15.2235 17.6698C14.8328 18.0605 14.3029 18.28 13.7503 18.28ZM6.25033 2.5533C5.91881 2.5533 5.60086 2.685 5.36644 2.91942C5.13202 3.15384 5.00033 3.47178 5.00033 3.8033V16.1966C5.00033 16.5282 5.13202 16.8461 5.36644 17.0805C5.60086 17.3149 5.91881 17.4466 6.25033 17.4466H13.7503C14.0818 17.4466 14.3998 17.3149 14.6342 17.0805C14.8686 16.8461 15.0003 16.5282 15.0003 16.1966V3.8033C15.0003 3.47178 14.8686 3.15384 14.6342 2.91942C14.3998 2.685 14.0818 2.5533 13.7503 2.5533H6.25033Z" fill="#1CD29B"/>
<path id="Vector_2" d="M9.99968 10.4692C9.42281 10.4692 8.85891 10.2981 8.37926 9.97765C7.89962 9.65716 7.52578 9.20164 7.30503 8.66869C7.08427 8.13574 7.02651 7.5493 7.13905 6.98352C7.25159 6.41774 7.52938 5.89804 7.93728 5.49014C8.34518 5.08223 8.86488 4.80445 9.43066 4.69191C9.99644 4.57937 10.5829 4.63713 11.1158 4.85788C11.6488 5.07864 12.1043 5.45248 12.4248 5.93212C12.7453 6.41176 12.9163 6.97567 12.9163 7.55253C12.9163 8.32608 12.6091 9.06795 12.0621 9.61493C11.5151 10.1619 10.7732 10.4692 9.99968 10.4692ZM9.99968 5.4692C9.58763 5.4692 9.18484 5.59138 8.84224 5.8203C8.49964 6.04922 8.23261 6.3746 8.07493 6.75528C7.91724 7.13596 7.87599 7.55484 7.95637 7.95897C8.03676 8.3631 8.23518 8.73431 8.52654 9.02567C8.8179 9.31703 9.18911 9.51545 9.59324 9.59584C9.99736 9.67622 10.4163 9.63496 10.7969 9.47728C11.1776 9.3196 11.503 9.05257 11.7319 8.70997C11.9608 8.36737 12.083 7.96458 12.083 7.55253C12.083 7 11.8635 6.47009 11.4728 6.07939C11.0821 5.68869 10.5522 5.4692 9.99968 5.4692ZM12.4997 15.365H7.49968C7.38917 15.365 7.28319 15.3211 7.20505 15.243C7.12691 15.1649 7.08301 15.0589 7.08301 14.9484C7.08301 14.8379 7.12691 14.7319 7.20505 14.6537C7.28319 14.5756 7.38917 14.5317 7.49968 14.5317H12.4997C12.6102 14.5317 12.7162 14.5756 12.7943 14.6537C12.8724 14.7319 12.9163 14.8379 12.9163 14.9484C12.9163 15.0589 12.8724 15.1649 12.7943 15.243C12.7162 15.3211 12.6102 15.365 12.4997 15.365Z" fill="#1CD29B"/>
</g>
</svg>
