<svg width="20" height="20" viewBox="0 0 20 20" fill="none" xmlns="http://www.w3.org/2000/svg">
<g id="formkit:visa">
<path id="Vector" d="M17.3125 17H2.6875C1.75375 17 1 16.2183 1 15.25V4.75C1 3.78167 1.75375 3 2.6875 3H10H17.3125C18.2463 3 19 3.78167 19 4.75V15.25C19 16.2183 18.2463 17 17.3125 17ZM2.6875 4.16667C2.3725 4.16667 2.125 4.42333 2.125 4.75V15.25C2.125 15.5767 2.3725 15.8333 2.6875 15.8333H17.3125C17.6275 15.8333 17.875 15.5767 17.875 15.25V4.75C17.875 4.42333 17.6275 4.16667 17.3125 4.16667H2.6875Z" fill="#1CD29B"/>
<path id="Vector_2" d="M16.055 8.06504H15.18C14.9117 8.06504 14.7133 8.14092 14.585 8.39024L12.905 11.9458H14.095C14.095 11.9458 14.305 11.4688 14.34 11.3604H15.7983C15.845 11.4905 15.9383 11.935 15.9383 11.935H17L16.055 8.07588V8.06504ZM14.6667 10.5583C14.7717 10.3306 15.1217 9.47425 15.1217 9.47425C15.1217 9.49593 15.2267 9.24661 15.2617 9.11653L15.3433 9.46341L15.6117 10.5908H14.6667V10.5691V10.5583ZM12.9867 10.6667C12.9867 11.4688 12.205 12 11.0033 12C10.49 12 10 11.9024 9.73167 11.794L9.895 10.916L10.035 10.9702C10.4083 11.122 10.6533 11.1762 11.0967 11.1762C11.4233 11.1762 11.7733 11.0569 11.7733 10.7967C11.7733 10.6233 11.6333 10.5149 11.1783 10.3198C10.7467 10.1247 10.175 9.82114 10.175 9.27913C10.175 8.52033 10.9683 8 12.1 8C12.5317 8 12.8933 8.07588 13.1267 8.17344L12.9633 9.00813L12.8817 8.93225C12.6717 8.85637 12.415 8.78049 12.0183 8.78049C11.5867 8.80217 11.3883 8.97561 11.3883 9.12737C11.3883 9.30081 11.6333 9.43089 12.0183 9.60434C12.6717 9.88618 12.975 10.2114 12.975 10.6667H12.9867ZM3 8.09756L3.02333 8.02168H4.785C5.03 8.02168 5.21667 8.09756 5.275 8.34688L5.66 10.0596C5.275 9.14905 4.365 8.40108 3 8.09756Z" fill="#1CD29B"/>
<path id="Vector_3" d="M8.29461 8.02235L6.39004 12H5.09544L4 8.67039C4.78423 9.11732 5.44398 9.8324 5.6805 10.3128L5.81743 10.7263L7 8H8.29461V8.02235ZM8.80498 8H10L9.24066 12H8.04564L8.80498 8Z" fill="#1CD29B"/>
</g>
</svg>
