<svg width="36" height="37" viewBox="0 0 36 37" fill="none" xmlns="http://www.w3.org/2000/svg">
<g id="bi:apple" clip-path="url(#clip0_13_100)">
<g id="Group">
<path id="Vector" d="M25.1593 0.0185162C25.0828 -0.0693588 22.3266 0.0532038 19.9281 2.72877C17.5296 5.40202 17.8986 8.46839 17.9526 8.54702C18.0066 8.62564 21.3726 8.7482 23.5213 5.63789C25.6701 2.52758 25.2358 0.108704 25.1593 0.0185162ZM32.6158 27.1511C32.5078 26.9291 27.3846 24.2975 27.8616 19.2377C28.3386 14.178 31.6303 12.7881 31.6821 12.6378C31.7338 12.4875 30.3388 10.811 28.8606 9.96227C27.775 9.36449 26.5739 9.02171 25.3438 8.95864C25.1008 8.9517 24.2571 8.73895 22.5223 9.22689C21.3793 9.54833 18.8031 10.589 18.0943 10.6306C17.3833 10.6722 15.2683 9.42345 12.9936 9.09277C11.5378 8.8037 9.99433 9.3957 8.88958 9.85127C7.78708 10.3045 5.69008 11.5949 4.22308 15.0243C2.75608 18.4515 3.52333 23.8812 4.07233 25.5693C4.62133 27.2575 5.47858 30.0186 6.93658 32.0351C8.23258 34.3106 9.95158 35.89 10.6693 36.4265C11.3871 36.963 13.4121 37.3191 14.8161 36.5815C15.9456 35.8692 17.9841 35.4599 18.7896 35.49C19.5928 35.52 21.1768 35.8461 22.7991 36.7364C24.0838 37.192 25.2988 37.0023 26.5161 36.4936C27.7333 35.9825 29.4951 34.0446 31.5516 30.1157C32.3316 28.2888 32.6863 27.3006 32.6158 27.1511Z" fill="black"/>
<path id="Vector_2" d="M25.1593 0.0185162C25.0828 -0.0693588 22.3266 0.0532038 19.9281 2.72877C17.5296 5.40202 17.8986 8.46839 17.9526 8.54702C18.0066 8.62564 21.3726 8.7482 23.5213 5.63789C25.6701 2.52758 25.2358 0.108704 25.1593 0.0185162ZM32.6158 27.1511C32.5078 26.9291 27.3846 24.2975 27.8616 19.2377C28.3386 14.178 31.6303 12.7881 31.6821 12.6378C31.7338 12.4875 30.3388 10.811 28.8606 9.96227C27.775 9.36449 26.5739 9.02171 25.3438 8.95864C25.1008 8.9517 24.2571 8.73895 22.5223 9.22689C21.3793 9.54833 18.8031 10.589 18.0943 10.6306C17.3833 10.6722 15.2683 9.42345 12.9936 9.09277C11.5378 8.8037 9.99433 9.3957 8.88958 9.85127C7.78708 10.3045 5.69008 11.5949 4.22308 15.0243C2.75608 18.4515 3.52333 23.8812 4.07233 25.5693C4.62133 27.2575 5.47858 30.0186 6.93658 32.0351C8.23258 34.3106 9.95158 35.89 10.6693 36.4265C11.3871 36.963 13.4121 37.3191 14.8161 36.5815C15.9456 35.8692 17.9841 35.4599 18.7896 35.49C19.5928 35.52 21.1768 35.8461 22.7991 36.7364C24.0838 37.192 25.2988 37.0023 26.5161 36.4936C27.7333 35.9825 29.4951 34.0446 31.5516 30.1157C32.3316 28.2888 32.6863 27.3006 32.6158 27.1511Z" fill="black"/>
</g>
</g>
<defs>
<clipPath id="clip0_13_100">
<rect width="36" height="37" fill="white"/>
</clipPath>
</defs>
</svg>
