<svg width="37" height="37" viewBox="0 0 37 37" fill="none" xmlns="http://www.w3.org/2000/svg">
<g id="logos:facebook" clip-path="url(#clip0_13_92)">
<path id="Vector" d="M37 18.5C37 8.2828 28.7172 0 18.5 0C8.2828 0 0 8.2828 0 18.5C0 27.7338 6.76522 35.3875 15.6094 36.7753V23.8477H10.9121V18.5H15.6094V14.4242C15.6094 9.78766 18.3714 7.22656 22.5972 7.22656C24.6212 7.22656 26.7383 7.58789 26.7383 7.58789V12.1406H24.4055C22.1074 12.1406 21.3906 13.5667 21.3906 15.0298V18.5H26.5215L25.7013 23.8477H21.3906V36.7753C30.2348 35.3875 37 27.734 37 18.5Z" fill="#1877F2"/>
<path id="Vector_2" d="M25.7013 23.8477L26.5215 18.5H21.3906V15.0298C21.3906 13.5666 22.1074 12.1406 24.4055 12.1406H26.7383V7.58789C26.7383 7.58789 24.6212 7.22656 22.597 7.22656C18.3714 7.22656 15.6094 9.78766 15.6094 14.4242V18.5H10.9121V23.8477H15.6094V36.7753C16.5656 36.9251 17.5321 37.0003 18.5 37C19.4679 37.0003 20.4344 36.9251 21.3906 36.7753V23.8477H25.7013Z" fill="white"/>
</g>
<defs>
<clipPath id="clip0_13_92">
<rect width="37" height="37" fill="white"/>
</clipPath>
</defs>
</svg>
